<?xml version="1.0" encoding="utf-8" standalone="no"?>
<!DOCTYPE svg PUBLIC "-//W3C//DTD SVG 1.1//EN"
  "http://www.w3.org/Graphics/SVG/1.1/DTD/svg11.dtd">
<!-- Created with matplotlib (http://matplotlib.org/) -->
<svg height="349pt" version="1.1" viewBox="0 0 642 349" width="642pt" xmlns="http://www.w3.org/2000/svg" xmlns:xlink="http://www.w3.org/1999/xlink">
 <defs>
  <style type="text/css">
*{stroke-linecap:butt;stroke-linejoin:round;}
  </style>
 </defs>
 <g id="figure_1">
  <g id="patch_1">
   <path d="M -0 349.321062 
L 642.320313 349.321062 
L 642.320313 0 
L -0 0 
z
" style="fill:none;"/>
  </g>
  <g id="axes_1">
   <g id="patch_2">
    <path d="M 41.719375 277.064 
L 627.619375 277.064 
L 627.619375 10.7 
L 41.719375 10.7 
z
" style="fill:none;"/>
   </g>
   <g id="matplotlib.axis_1">
    <g id="xtick_1">
     <g id="line2d_1">
      <defs>
       <path d="M 0 0 
L 0 3.5 
" id="m1b657e1d04" style="stroke:#000000;stroke-width:0.8;"/>
      </defs>
      <g>
       <use style="stroke:#000000;stroke-width:0.8;" x="41.719375" xlink:href="#m1b657e1d04" y="277.064"/>
      </g>
     </g>
     <g id="text_1">
      <!-- IV/20 -->
      <defs>
       <path d="M 9.328125 0 
L 9.328125 71.578125 
L 18.796875 71.578125 
L 18.796875 0 
z
" id="ArialMT-49"/>
       <path d="M 28.171875 0 
L 0.4375 71.578125 
L 10.6875 71.578125 
L 29.296875 19.578125 
Q 31.546875 13.328125 33.0625 7.859375 
Q 34.71875 13.71875 36.921875 19.578125 
L 56.25 71.578125 
L 65.921875 71.578125 
L 37.890625 0 
z
" id="ArialMT-56"/>
       <path d="M 0 -1.21875 
L 20.75 72.796875 
L 27.78125 72.796875 
L 7.078125 -1.21875 
z
" id="ArialMT-2f"/>
       <path d="M 50.34375 8.453125 
L 50.34375 0 
L 3.03125 0 
Q 2.9375 3.171875 4.046875 6.109375 
Q 5.859375 10.9375 9.828125 15.625 
Q 13.8125 20.3125 21.34375 26.46875 
Q 33.015625 36.03125 37.109375 41.625 
Q 41.21875 47.21875 41.21875 52.203125 
Q 41.21875 57.421875 37.46875 61 
Q 33.734375 64.59375 27.734375 64.59375 
Q 21.390625 64.59375 17.578125 60.78125 
Q 13.765625 56.984375 13.71875 50.25 
L 4.6875 51.171875 
Q 5.609375 61.28125 11.65625 66.578125 
Q 17.71875 71.875 27.9375 71.875 
Q 38.234375 71.875 44.234375 66.15625 
Q 50.25 60.453125 50.25 52 
Q 50.25 47.703125 48.484375 43.546875 
Q 46.734375 39.40625 42.65625 34.8125 
Q 38.578125 30.21875 29.109375 22.21875 
Q 21.1875 15.578125 18.9375 13.203125 
Q 16.703125 10.84375 15.234375 8.453125 
z
" id="ArialMT-32"/>
       <path d="M 4.15625 35.296875 
Q 4.15625 48 6.765625 55.734375 
Q 9.375 63.484375 14.515625 67.671875 
Q 19.671875 71.875 27.484375 71.875 
Q 33.25 71.875 37.59375 69.546875 
Q 41.9375 67.234375 44.765625 62.859375 
Q 47.609375 58.5 49.21875 52.21875 
Q 50.828125 45.953125 50.828125 35.296875 
Q 50.828125 22.703125 48.234375 14.96875 
Q 45.65625 7.234375 40.5 3 
Q 35.359375 -1.21875 27.484375 -1.21875 
Q 17.140625 -1.21875 11.234375 6.203125 
Q 4.15625 15.140625 4.15625 35.296875 
M 13.1875 35.296875 
Q 13.1875 17.671875 17.3125 11.828125 
Q 21.4375 6 27.484375 6 
Q 33.546875 6 37.671875 11.859375 
Q 41.796875 17.71875 41.796875 35.296875 
Q 41.796875 52.984375 37.671875 58.78125 
Q 33.546875 64.59375 27.390625 64.59375 
Q 21.34375 64.59375 17.71875 59.46875 
Q 13.1875 52.9375 13.1875 35.296875 
" id="ArialMT-30"/>
      </defs>
      <g transform="translate(20.705781 296.448062)scale(0.18 -0.18)">
       <use xlink:href="#ArialMT-49"/>
       <use x="27.783203" xlink:href="#ArialMT-56"/>
       <use x="94.482422" xlink:href="#ArialMT-2f"/>
       <use x="122.265625" xlink:href="#ArialMT-32"/>
       <use x="177.880859" xlink:href="#ArialMT-30"/>
      </g>
     </g>
    </g>
    <g id="xtick_2">
     <g id="line2d_2">
      <g>
       <use style="stroke:#000000;stroke-width:0.8;" x="81.093225" xlink:href="#m1b657e1d04" y="277.064"/>
      </g>
     </g>
     <g id="text_2">
      <!-- I/21 -->
      <defs>
       <path d="M 37.25 0 
L 28.46875 0 
L 28.46875 56 
Q 25.296875 52.984375 20.140625 49.953125 
Q 14.984375 46.921875 10.890625 45.40625 
L 10.890625 53.90625 
Q 18.265625 57.375 23.78125 62.296875 
Q 29.296875 67.234375 31.59375 71.875 
L 37.25 71.875 
z
" id="ArialMT-31"/>
      </defs>
      <g transform="translate(66.082912 296.448062)scale(0.18 -0.18)">
       <use xlink:href="#ArialMT-49"/>
       <use x="27.783203" xlink:href="#ArialMT-2f"/>
       <use x="55.566406" xlink:href="#ArialMT-32"/>
       <use x="111.181641" xlink:href="#ArialMT-31"/>
      </g>
     </g>
    </g>
    <g id="xtick_3">
     <g id="line2d_3">
      <g>
       <use style="stroke:#000000;stroke-width:0.8;" x="119.611121" xlink:href="#m1b657e1d04" y="277.064"/>
      </g>
     </g>
     <g id="text_3">
      <!-- II -->
      <g transform="translate(114.610496 296.448062)scale(0.18 -0.18)">
       <use xlink:href="#ArialMT-49"/>
       <use x="27.783203" xlink:href="#ArialMT-49"/>
      </g>
     </g>
    </g>
    <g id="xtick_4">
     <g id="line2d_4">
      <g>
       <use style="stroke:#000000;stroke-width:0.8;" x="158.556994" xlink:href="#m1b657e1d04" y="277.064"/>
      </g>
     </g>
     <g id="text_4">
      <!-- III -->
      <g transform="translate(151.056056 296.448062)scale(0.18 -0.18)">
       <use xlink:href="#ArialMT-49"/>
       <use x="27.783203" xlink:href="#ArialMT-49"/>
       <use x="55.566406" xlink:href="#ArialMT-49"/>
      </g>
     </g>
    </g>
    <g id="xtick_5">
     <g id="line2d_5">
      <g>
       <use style="stroke:#000000;stroke-width:0.8;" x="197.930843" xlink:href="#m1b657e1d04" y="277.064"/>
      </g>
     </g>
     <g id="text_5">
      <!-- IV -->
      <g transform="translate(189.427249 296.448062)scale(0.18 -0.18)">
       <use xlink:href="#ArialMT-49"/>
       <use x="27.783203" xlink:href="#ArialMT-56"/>
      </g>
     </g>
    </g>
    <g id="xtick_6">
     <g id="line2d_6">
      <g>
       <use style="stroke:#000000;stroke-width:0.8;" x="237.304693" xlink:href="#m1b657e1d04" y="277.064"/>
      </g>
     </g>
     <g id="text_6">
      <!-- I/22 -->
      <g transform="translate(222.29438 296.448062)scale(0.18 -0.18)">
       <use xlink:href="#ArialMT-49"/>
       <use x="27.783203" xlink:href="#ArialMT-2f"/>
       <use x="55.566406" xlink:href="#ArialMT-32"/>
       <use x="111.181641" xlink:href="#ArialMT-32"/>
      </g>
     </g>
    </g>
    <g id="xtick_7">
     <g id="line2d_7">
      <g>
       <use style="stroke:#000000;stroke-width:0.8;" x="275.822589" xlink:href="#m1b657e1d04" y="277.064"/>
      </g>
     </g>
     <g id="text_7">
      <!-- II -->
      <g transform="translate(270.821964 296.448062)scale(0.18 -0.18)">
       <use xlink:href="#ArialMT-49"/>
       <use x="27.783203" xlink:href="#ArialMT-49"/>
      </g>
     </g>
    </g>
    <g id="xtick_8">
     <g id="line2d_8">
      <g>
       <use style="stroke:#000000;stroke-width:0.8;" x="314.768462" xlink:href="#m1b657e1d04" y="277.064"/>
      </g>
     </g>
     <g id="text_8">
      <!-- III -->
      <g transform="translate(307.267524 296.448062)scale(0.18 -0.18)">
       <use xlink:href="#ArialMT-49"/>
       <use x="27.783203" xlink:href="#ArialMT-49"/>
       <use x="55.566406" xlink:href="#ArialMT-49"/>
      </g>
     </g>
    </g>
    <g id="xtick_9">
     <g id="line2d_9">
      <g>
       <use style="stroke:#000000;stroke-width:0.8;" x="354.142311" xlink:href="#m1b657e1d04" y="277.064"/>
      </g>
     </g>
     <g id="text_9">
      <!-- IV -->
      <g transform="translate(345.638718 296.448062)scale(0.18 -0.18)">
       <use xlink:href="#ArialMT-49"/>
       <use x="27.783203" xlink:href="#ArialMT-56"/>
      </g>
     </g>
    </g>
    <g id="xtick_10">
     <g id="line2d_10">
      <g>
       <use style="stroke:#000000;stroke-width:0.8;" x="393.516161" xlink:href="#m1b657e1d04" y="277.064"/>
      </g>
     </g>
     <g id="text_10">
      <!-- I/23 -->
      <defs>
       <path d="M 4.203125 18.890625 
L 12.984375 20.0625 
Q 14.5 12.59375 18.140625 9.296875 
Q 21.78125 6 27 6 
Q 33.203125 6 37.46875 10.296875 
Q 41.75 14.59375 41.75 20.953125 
Q 41.75 27 37.796875 30.921875 
Q 33.84375 34.859375 27.734375 34.859375 
Q 25.25 34.859375 21.53125 33.890625 
L 22.515625 41.609375 
Q 23.390625 41.5 23.921875 41.5 
Q 29.546875 41.5 34.03125 44.421875 
Q 38.53125 47.359375 38.53125 53.46875 
Q 38.53125 58.296875 35.25 61.46875 
Q 31.984375 64.65625 26.8125 64.65625 
Q 21.6875 64.65625 18.265625 61.421875 
Q 14.84375 58.203125 13.875 51.765625 
L 5.078125 53.328125 
Q 6.6875 62.15625 12.390625 67.015625 
Q 18.109375 71.875 26.609375 71.875 
Q 32.46875 71.875 37.390625 69.359375 
Q 42.328125 66.84375 44.9375 62.5 
Q 47.5625 58.15625 47.5625 53.265625 
Q 47.5625 48.640625 45.0625 44.828125 
Q 42.578125 41.015625 37.703125 38.765625 
Q 44.046875 37.3125 47.5625 32.6875 
Q 51.078125 28.078125 51.078125 21.140625 
Q 51.078125 11.765625 44.234375 5.25 
Q 37.40625 -1.265625 26.953125 -1.265625 
Q 17.53125 -1.265625 11.296875 4.34375 
Q 5.078125 9.96875 4.203125 18.890625 
" id="ArialMT-33"/>
      </defs>
      <g transform="translate(378.505848 296.448062)scale(0.18 -0.18)">
       <use xlink:href="#ArialMT-49"/>
       <use x="27.783203" xlink:href="#ArialMT-2f"/>
       <use x="55.566406" xlink:href="#ArialMT-32"/>
       <use x="111.181641" xlink:href="#ArialMT-33"/>
      </g>
     </g>
    </g>
    <g id="xtick_11">
     <g id="line2d_11">
      <g>
       <use style="stroke:#000000;stroke-width:0.8;" x="432.034057" xlink:href="#m1b657e1d04" y="277.064"/>
      </g>
     </g>
     <g id="text_11">
      <!-- II -->
      <g transform="translate(427.033432 296.448062)scale(0.18 -0.18)">
       <use xlink:href="#ArialMT-49"/>
       <use x="27.783203" xlink:href="#ArialMT-49"/>
      </g>
     </g>
    </g>
    <g id="xtick_12">
     <g id="line2d_12">
      <g>
       <use style="stroke:#000000;stroke-width:0.8;" x="470.97993" xlink:href="#m1b657e1d04" y="277.064"/>
      </g>
     </g>
     <g id="text_12">
      <!-- III -->
      <g transform="translate(463.478993 296.448062)scale(0.18 -0.18)">
       <use xlink:href="#ArialMT-49"/>
       <use x="27.783203" xlink:href="#ArialMT-49"/>
       <use x="55.566406" xlink:href="#ArialMT-49"/>
      </g>
     </g>
    </g>
    <g id="xtick_13">
     <g id="line2d_13">
      <g>
       <use style="stroke:#000000;stroke-width:0.8;" x="510.35378" xlink:href="#m1b657e1d04" y="277.064"/>
      </g>
     </g>
     <g id="text_13">
      <!-- IV -->
      <g transform="translate(501.850186 296.448062)scale(0.18 -0.18)">
       <use xlink:href="#ArialMT-49"/>
       <use x="27.783203" xlink:href="#ArialMT-56"/>
      </g>
     </g>
    </g>
    <g id="xtick_14">
     <g id="line2d_14">
      <g>
       <use style="stroke:#000000;stroke-width:0.8;" x="549.727629" xlink:href="#m1b657e1d04" y="277.064"/>
      </g>
     </g>
     <g id="text_14">
      <!-- I/24 -->
      <defs>
       <path d="M 32.328125 0 
L 32.328125 17.140625 
L 1.265625 17.140625 
L 1.265625 25.203125 
L 33.9375 71.578125 
L 41.109375 71.578125 
L 41.109375 25.203125 
L 50.78125 25.203125 
L 50.78125 17.140625 
L 41.109375 17.140625 
L 41.109375 0 
z
M 32.328125 25.203125 
L 32.328125 57.46875 
L 9.90625 25.203125 
z
" id="ArialMT-34"/>
      </defs>
      <g transform="translate(534.717317 296.448062)scale(0.18 -0.18)">
       <use xlink:href="#ArialMT-49"/>
       <use x="27.783203" xlink:href="#ArialMT-2f"/>
       <use x="55.566406" xlink:href="#ArialMT-32"/>
       <use x="111.181641" xlink:href="#ArialMT-34"/>
      </g>
     </g>
    </g>
    <g id="xtick_15">
     <g id="line2d_15">
      <g>
       <use style="stroke:#000000;stroke-width:0.8;" x="588.673502" xlink:href="#m1b657e1d04" y="277.064"/>
      </g>
     </g>
     <g id="text_15">
      <!-- II -->
      <g transform="translate(583.672877 296.448062)scale(0.18 -0.18)">
       <use xlink:href="#ArialMT-49"/>
       <use x="27.783203" xlink:href="#ArialMT-49"/>
      </g>
     </g>
    </g>
    <g id="xtick_16">
     <g id="line2d_16">
      <g>
       <use style="stroke:#000000;stroke-width:0.8;" x="627.619375" xlink:href="#m1b657e1d04" y="277.064"/>
      </g>
     </g>
     <g id="text_16">
      <!-- III -->
      <g transform="translate(620.118438 296.448062)scale(0.18 -0.18)">
       <use xlink:href="#ArialMT-49"/>
       <use x="27.783203" xlink:href="#ArialMT-49"/>
       <use x="55.566406" xlink:href="#ArialMT-49"/>
      </g>
     </g>
    </g>
   </g>
   <g id="matplotlib.axis_2">
    <g id="ytick_1">
     <g id="text_17">
      <!-- 0 -->
      <g transform="translate(17.209688 271.398577)scale(0.18 -0.18)">
       <use xlink:href="#ArialMT-30"/>
      </g>
     </g>
    </g>
    <g id="ytick_2">
     <g id="text_18">
      <!-- 2 -->
      <g transform="translate(17.209688 222.968759)scale(0.18 -0.18)">
       <use xlink:href="#ArialMT-32"/>
      </g>
     </g>
    </g>
    <g id="ytick_3">
     <g id="text_19">
      <!-- 4 -->
      <g transform="translate(17.209688 174.53894)scale(0.18 -0.18)">
       <use xlink:href="#ArialMT-34"/>
      </g>
     </g>
    </g>
    <g id="ytick_4">
     <g id="text_20">
      <!-- 6 -->
      <defs>
       <path d="M 49.75 54.046875 
L 41.015625 53.375 
Q 39.84375 58.546875 37.703125 60.890625 
Q 34.125 64.65625 28.90625 64.65625 
Q 24.703125 64.65625 21.53125 62.3125 
Q 17.390625 59.28125 14.984375 53.46875 
Q 12.59375 47.65625 12.5 36.921875 
Q 15.671875 41.75 20.265625 44.09375 
Q 24.859375 46.4375 29.890625 46.4375 
Q 38.671875 46.4375 44.84375 39.96875 
Q 51.03125 33.5 51.03125 23.25 
Q 51.03125 16.5 48.125 10.71875 
Q 45.21875 4.9375 40.140625 1.859375 
Q 35.0625 -1.21875 28.609375 -1.21875 
Q 17.625 -1.21875 10.6875 6.859375 
Q 3.765625 14.9375 3.765625 33.5 
Q 3.765625 54.25 11.421875 63.671875 
Q 18.109375 71.875 29.4375 71.875 
Q 37.890625 71.875 43.28125 67.140625 
Q 48.6875 62.40625 49.75 54.046875 
M 13.875 23.1875 
Q 13.875 18.65625 15.796875 14.5 
Q 17.71875 10.359375 21.1875 8.171875 
Q 24.65625 6 28.46875 6 
Q 34.03125 6 38.03125 10.484375 
Q 42.046875 14.984375 42.046875 22.703125 
Q 42.046875 30.125 38.078125 34.390625 
Q 34.125 38.671875 28.125 38.671875 
Q 22.171875 38.671875 18.015625 34.390625 
Q 13.875 30.125 13.875 23.1875 
" id="ArialMT-36"/>
      </defs>
      <g transform="translate(17.209688 126.109122)scale(0.18 -0.18)">
       <use xlink:href="#ArialMT-36"/>
      </g>
     </g>
    </g>
    <g id="ytick_5">
     <g id="text_21">
      <!-- 8 -->
      <defs>
       <path d="M 17.671875 38.8125 
Q 12.203125 40.828125 9.5625 44.53125 
Q 6.9375 48.25 6.9375 53.421875 
Q 6.9375 61.234375 12.546875 66.546875 
Q 18.171875 71.875 27.484375 71.875 
Q 36.859375 71.875 42.578125 66.421875 
Q 48.296875 60.984375 48.296875 53.171875 
Q 48.296875 48.1875 45.671875 44.5 
Q 43.0625 40.828125 37.75 38.8125 
Q 44.34375 36.671875 47.78125 31.875 
Q 51.21875 27.09375 51.21875 20.453125 
Q 51.21875 11.28125 44.71875 5.03125 
Q 38.234375 -1.21875 27.640625 -1.21875 
Q 17.046875 -1.21875 10.546875 5.046875 
Q 4.046875 11.328125 4.046875 20.703125 
Q 4.046875 27.6875 7.59375 32.390625 
Q 11.140625 37.109375 17.671875 38.8125 
M 15.921875 53.71875 
Q 15.921875 48.640625 19.1875 45.40625 
Q 22.46875 42.1875 27.6875 42.1875 
Q 32.765625 42.1875 36.015625 45.375 
Q 39.265625 48.578125 39.265625 53.21875 
Q 39.265625 58.0625 35.90625 61.359375 
Q 32.5625 64.65625 27.59375 64.65625 
Q 22.5625 64.65625 19.234375 61.421875 
Q 15.921875 58.203125 15.921875 53.71875 
M 13.09375 20.65625 
Q 13.09375 16.890625 14.875 13.375 
Q 16.65625 9.859375 20.171875 7.921875 
Q 23.6875 6 27.734375 6 
Q 34.03125 6 38.125 10.046875 
Q 42.234375 14.109375 42.234375 20.359375 
Q 42.234375 26.703125 38.015625 30.859375 
Q 33.796875 35.015625 27.4375 35.015625 
Q 21.234375 35.015625 17.15625 30.90625 
Q 13.09375 26.8125 13.09375 20.65625 
" id="ArialMT-38"/>
      </defs>
      <g transform="translate(17.209688 77.679304)scale(0.18 -0.18)">
       <use xlink:href="#ArialMT-38"/>
      </g>
     </g>
    </g>
    <g id="ytick_6">
     <g id="text_22">
      <!-- 10 -->
      <g transform="translate(7.2 29.249486)scale(0.18 -0.18)">
       <use xlink:href="#ArialMT-31"/>
       <use x="55.615234" xlink:href="#ArialMT-30"/>
      </g>
     </g>
    </g>
   </g>
   <g id="line2d_17">
    <path clip-path="url(#p47bec63b2b)" d="M 41.719375 264.956545 
L 627.619375 264.956545 
" style="fill:none;stroke:#000000;stroke-linecap:square;stroke-width:0.75;"/>
   </g>
   <g id="line2d_18">
    <path clip-path="url(#p47bec63b2b)" d="M 41.719375 216.526727 
L 627.619375 216.526727 
" style="fill:none;stroke:#d2d2d2;stroke-linecap:square;stroke-width:0.5;"/>
   </g>
   <g id="line2d_19">
    <path clip-path="url(#p47bec63b2b)" d="M 41.719375 168.096909 
L 627.619375 168.096909 
" style="fill:none;stroke:#d2d2d2;stroke-linecap:square;stroke-width:0.5;"/>
   </g>
   <g id="line2d_20">
    <path clip-path="url(#p47bec63b2b)" d="M 41.719375 119.667091 
L 627.619375 119.667091 
" style="fill:none;stroke:#d2d2d2;stroke-linecap:square;stroke-width:0.5;"/>
   </g>
   <g id="legend_1">
    <g id="patch_3">
     <path d="M 104.21875 342.121062 
L 565.12 342.121062 
Q 568.72 342.121062 568.72 338.521062 
L 568.72 314.8595 
Q 568.72 311.2595 565.12 311.2595 
L 104.21875 311.2595 
Q 100.61875 311.2595 100.61875 314.8595 
L 100.61875 338.521062 
Q 100.61875 342.121062 104.21875 342.121062 
z
" style="fill:none;opacity:0.8;"/>
    </g>
    <g id="patch_4">
     <path d="M 107.81875 331.343562 
L 143.81875 331.343562 
L 143.81875 318.743562 
L 107.81875 318.743562 
z
" style="fill:#f9d1ce;"/>
    </g>
    <g id="text_23">
     <!-- 90% -->
     <defs>
      <path d="M 5.46875 16.546875 
L 13.921875 17.328125 
Q 14.984375 11.375 18.015625 8.6875 
Q 21.046875 6 25.78125 6 
Q 29.828125 6 32.875 7.859375 
Q 35.9375 9.71875 37.890625 12.8125 
Q 39.84375 15.921875 41.15625 21.1875 
Q 42.484375 26.46875 42.484375 31.9375 
Q 42.484375 32.515625 42.4375 33.6875 
Q 39.796875 29.5 35.234375 26.875 
Q 30.671875 24.265625 25.34375 24.265625 
Q 16.453125 24.265625 10.296875 30.703125 
Q 4.15625 37.15625 4.15625 47.703125 
Q 4.15625 58.59375 10.578125 65.234375 
Q 17 71.875 26.65625 71.875 
Q 33.640625 71.875 39.421875 68.109375 
Q 45.21875 64.359375 48.21875 57.390625 
Q 51.21875 50.4375 51.21875 37.25 
Q 51.21875 23.53125 48.234375 15.40625 
Q 45.265625 7.28125 39.375 3.03125 
Q 33.5 -1.21875 25.59375 -1.21875 
Q 17.1875 -1.21875 11.859375 3.4375 
Q 6.546875 8.109375 5.46875 16.546875 
M 41.453125 48.140625 
Q 41.453125 55.71875 37.421875 60.15625 
Q 33.40625 64.59375 27.734375 64.59375 
Q 21.875 64.59375 17.53125 59.8125 
Q 13.1875 55.03125 13.1875 47.40625 
Q 13.1875 40.578125 17.3125 36.296875 
Q 21.4375 32.03125 27.484375 32.03125 
Q 33.59375 32.03125 37.515625 36.296875 
Q 41.453125 40.578125 41.453125 48.140625 
" id="ArialMT-39"/>
      <path d="M 5.8125 54.390625 
Q 5.8125 62.0625 9.671875 67.421875 
Q 13.53125 72.796875 20.84375 72.796875 
Q 27.59375 72.796875 32 67.984375 
Q 36.421875 63.1875 36.421875 53.859375 
Q 36.421875 44.78125 31.953125 39.875 
Q 27.484375 34.96875 20.953125 34.96875 
Q 14.453125 34.96875 10.125 39.796875 
Q 5.8125 44.625 5.8125 54.390625 
M 21.09375 66.75 
Q 17.828125 66.75 15.65625 63.90625 
Q 13.484375 61.078125 13.484375 53.515625 
Q 13.484375 46.625 15.671875 43.8125 
Q 17.875 41.015625 21.09375 41.015625 
Q 24.421875 41.015625 26.59375 43.84375 
Q 28.765625 46.6875 28.765625 54.203125 
Q 28.765625 61.140625 26.5625 63.9375 
Q 24.359375 66.75 21.09375 66.75 
M 21.140625 -2.640625 
L 60.296875 72.796875 
L 67.4375 72.796875 
L 28.421875 -2.640625 
z
M 52.09375 16.796875 
Q 52.09375 24.515625 55.953125 29.859375 
Q 59.8125 35.203125 67.1875 35.203125 
Q 73.921875 35.203125 78.34375 30.390625 
Q 82.765625 25.59375 82.765625 16.265625 
Q 82.765625 7.171875 78.296875 2.265625 
Q 73.828125 -2.640625 67.234375 -2.640625 
Q 60.75 -2.640625 56.421875 2.21875 
Q 52.09375 7.078125 52.09375 16.796875 
M 67.4375 29.15625 
Q 64.109375 29.15625 61.9375 26.3125 
Q 59.765625 23.484375 59.765625 15.921875 
Q 59.765625 9.078125 61.953125 6.25 
Q 64.15625 3.421875 67.390625 3.421875 
Q 70.75 3.421875 72.921875 6.25 
Q 75.09375 9.078125 75.09375 16.609375 
Q 75.09375 23.53125 72.890625 26.34375 
Q 70.703125 29.15625 67.4375 29.15625 
" id="ArialMT-25"/>
     </defs>
     <g transform="translate(158.21875 331.343562)scale(0.18 -0.18)">
      <use xlink:href="#ArialMT-39"/>
      <use x="55.615234" xlink:href="#ArialMT-30"/>
      <use x="111.230469" xlink:href="#ArialMT-25"/>
     </g>
    </g>
    <g id="patch_5">
     <path d="M 230.244063 331.343562 
L 266.244063 331.343562 
L 266.244063 318.743562 
L 230.244063 318.743562 
z
" style="fill:#f1a7a0;"/>
    </g>
    <g id="text_24">
     <!-- 70% -->
     <defs>
      <path d="M 4.734375 62.203125 
L 4.734375 70.65625 
L 51.078125 70.65625 
L 51.078125 63.8125 
Q 44.234375 56.546875 37.515625 44.484375 
Q 30.8125 32.421875 27.15625 19.671875 
Q 24.515625 10.6875 23.78125 0 
L 14.75 0 
Q 14.890625 8.453125 18.0625 20.40625 
Q 21.234375 32.375 27.171875 43.484375 
Q 33.109375 54.59375 39.796875 62.203125 
z
" id="ArialMT-37"/>
     </defs>
     <g transform="translate(280.644063 331.343562)scale(0.18 -0.18)">
      <use xlink:href="#ArialMT-37"/>
      <use x="55.615234" xlink:href="#ArialMT-30"/>
      <use x="111.230469" xlink:href="#ArialMT-25"/>
     </g>
    </g>
    <g id="patch_6">
     <path d="M 352.669375 331.343562 
L 388.669375 331.343562 
L 388.669375 318.743562 
L 352.669375 318.743562 
z
" style="fill:#eb7b72;"/>
    </g>
    <g id="text_25">
     <!-- 50% -->
     <defs>
      <path d="M 4.15625 18.75 
L 13.375 19.53125 
Q 14.40625 12.796875 18.140625 9.390625 
Q 21.875 6 27.15625 6 
Q 33.5 6 37.890625 10.78125 
Q 42.28125 15.578125 42.28125 23.484375 
Q 42.28125 31 38.0625 35.34375 
Q 33.84375 39.703125 27 39.703125 
Q 22.75 39.703125 19.328125 37.765625 
Q 15.921875 35.84375 13.96875 32.765625 
L 5.71875 33.84375 
L 12.640625 70.609375 
L 48.25 70.609375 
L 48.25 62.203125 
L 19.671875 62.203125 
L 15.828125 42.96875 
Q 22.265625 47.46875 29.34375 47.46875 
Q 38.71875 47.46875 45.15625 40.96875 
Q 51.609375 34.46875 51.609375 24.265625 
Q 51.609375 14.546875 45.953125 7.46875 
Q 39.0625 -1.21875 27.15625 -1.21875 
Q 17.390625 -1.21875 11.203125 4.25 
Q 5.03125 9.71875 4.15625 18.75 
" id="ArialMT-35"/>
     </defs>
     <g transform="translate(403.069375 331.343562)scale(0.18 -0.18)">
      <use xlink:href="#ArialMT-35"/>
      <use x="55.615234" xlink:href="#ArialMT-30"/>
      <use x="111.230469" xlink:href="#ArialMT-25"/>
     </g>
    </g>
    <g id="patch_7">
     <path d="M 475.094687 331.343562 
L 511.094687 331.343562 
L 511.094687 318.743562 
L 475.094687 318.743562 
z
" style="fill:#d52b1e;"/>
    </g>
    <g id="text_26">
     <!-- 30% -->
     <g transform="translate(525.494687 331.343562)scale(0.18 -0.18)">
      <use xlink:href="#ArialMT-33"/>
      <use x="55.615234" xlink:href="#ArialMT-30"/>
      <use x="111.230469" xlink:href="#ArialMT-25"/>
     </g>
    </g>
   </g>
   <g id="line2d_21">
    <path clip-path="url(#p47bec63b2b)" d="M 41.719375 71.237273 
L 627.619375 71.237273 
" style="fill:none;stroke:#d2d2d2;stroke-linecap:square;stroke-width:0.5;"/>
   </g>
   <g id="line2d_22">
    <path clip-path="url(#p47bec63b2b)" d="M 41.719375 22.807455 
L 627.619375 22.807455 
" style="fill:none;stroke:#d2d2d2;stroke-linecap:square;stroke-width:0.5;"/>
   </g>
   <g id="patch_8">
    <path clip-path="url(#p47bec63b2b)" d="M 41.719375 264.956545 
L 41.719375 264.956545 
L 41.719375 264.956545 
L 41.719375 264.956545 
z
" style="fill:#f9d1ce;"/>
   </g>
   <g id="patch_9">
    <path clip-path="url(#p47bec63b2b)" d="M 81.093225 264.956545 
L 81.093225 264.956545 
L 81.093225 264.956545 
L 81.093225 264.956545 
z
" style="fill:#f9d1ce;"/>
   </g>
   <g id="patch_10">
    <path clip-path="url(#p47bec63b2b)" d="M 119.611121 264.956545 
L 119.611121 264.956545 
L 119.611121 264.956545 
L 119.611121 264.956545 
z
" style="fill:#f9d1ce;"/>
   </g>
   <g id="patch_11">
    <path clip-path="url(#p47bec63b2b)" d="M 158.556994 264.956545 
L 158.556994 264.956545 
L 158.556994 264.956545 
L 158.556994 264.956545 
z
" style="fill:#f9d1ce;"/>
   </g>
   <g id="patch_12">
    <path clip-path="url(#p47bec63b2b)" d="M 197.930843 264.956545 
L 197.930843 264.956545 
L 197.930843 264.956545 
L 197.930843 264.956545 
z
" style="fill:#f9d1ce;"/>
   </g>
   <g id="patch_13">
    <path clip-path="url(#p47bec63b2b)" d="M 237.304693 264.956545 
L 237.304693 264.956545 
L 237.304693 264.956545 
L 237.304693 264.956545 
z
" style="fill:#f9d1ce;"/>
   </g>
   <g id="patch_14">
    <path clip-path="url(#p47bec63b2b)" d="M 275.822589 264.956545 
L 275.822589 264.956545 
L 275.822589 264.956545 
L 275.822589 264.956545 
z
" style="fill:#f9d1ce;"/>
   </g>
   <g id="patch_15">
    <path clip-path="url(#p47bec63b2b)" d="M 314.768462 264.956545 
L 314.768462 264.956545 
L 314.768462 88.849289 
L 314.768462 88.849289 
z
" style="fill:#f9d1ce;"/>
   </g>
   <g id="patch_16">
    <path clip-path="url(#p47bec63b2b)" d="M 354.142311 264.956545 
L 354.142311 264.956545 
L 354.142311 78.430374 
L 354.142311 78.430374 
z
" style="fill:#f9d1ce;"/>
   </g>
   <g id="patch_17">
    <path clip-path="url(#p47bec63b2b)" d="M 393.516161 264.956545 
L 393.516161 264.956545 
L 393.516161 89.584924 
L 393.516161 89.584924 
z
" style="fill:#f9d1ce;"/>
   </g>
   <g id="patch_18">
    <path clip-path="url(#p47bec63b2b)" d="M 432.034057 264.956545 
L 432.034057 264.956545 
L 432.034057 119.910782 
L 432.034057 119.910782 
z
" style="fill:#f9d1ce;"/>
   </g>
   <g id="patch_19">
    <path clip-path="url(#p47bec63b2b)" d="M 470.97993 264.956545 
L 470.97993 264.956545 
L 470.97993 136.914125 
L 470.97993 136.914125 
z
" style="fill:#f9d1ce;"/>
   </g>
   <g id="patch_20">
    <path clip-path="url(#p47bec63b2b)" d="M 510.35378 264.956545 
L 510.35378 264.956545 
L 510.35378 157.379755 
L 510.35378 157.379755 
z
" style="fill:#f9d1ce;"/>
   </g>
   <g id="patch_21">
    <path clip-path="url(#p47bec63b2b)" d="M 549.727629 264.956545 
L 549.727629 264.956545 
L 549.727629 174.300613 
L 549.727629 174.300613 
z
" style="fill:#f9d1ce;"/>
   </g>
   <g id="patch_22">
    <path clip-path="url(#p47bec63b2b)" d="M 588.673502 264.956545 
L 588.673502 264.956545 
L 588.673502 189.398952 
L 588.673502 189.398952 
z
" style="fill:#f9d1ce;"/>
   </g>
   <g id="patch_23">
    <path clip-path="url(#p47bec63b2b)" d="M 627.619375 264.956545 
L 627.619375 264.956545 
L 627.619375 202.426719 
L 627.619375 202.426719 
z
" style="fill:#f9d1ce;"/>
   </g>
   <g id="patch_24">
    <path clip-path="url(#p47bec63b2b)" d="M 41.719375 264.956545 
L 41.719375 264.956545 
L 41.719375 264.956545 
L 41.719375 264.956545 
z
" style="fill:#f9d1ce;"/>
   </g>
   <g id="patch_25">
    <path clip-path="url(#p47bec63b2b)" d="M 81.093225 264.956545 
L 81.093225 264.956545 
L 81.093225 264.956545 
L 81.093225 264.956545 
z
" style="fill:#f9d1ce;"/>
   </g>
   <g id="patch_26">
    <path clip-path="url(#p47bec63b2b)" d="M 119.611121 264.956545 
L 119.611121 264.956545 
L 119.611121 264.956545 
L 119.611121 264.956545 
z
" style="fill:#f9d1ce;"/>
   </g>
   <g id="patch_27">
    <path clip-path="url(#p47bec63b2b)" d="M 158.556994 264.956545 
L 158.556994 264.956545 
L 158.556994 264.956545 
L 158.556994 264.956545 
z
" style="fill:#f9d1ce;"/>
   </g>
   <g id="patch_28">
    <path clip-path="url(#p47bec63b2b)" d="M 197.930843 264.956545 
L 197.930843 264.956545 
L 197.930843 264.956545 
L 197.930843 264.956545 
z
" style="fill:#f9d1ce;"/>
   </g>
   <g id="patch_29">
    <path clip-path="url(#p47bec63b2b)" d="M 237.304693 264.956545 
L 237.304693 264.956545 
L 237.304693 264.956545 
L 237.304693 264.956545 
z
" style="fill:#f9d1ce;"/>
   </g>
   <g id="patch_30">
    <path clip-path="url(#p47bec63b2b)" d="M 275.822589 264.956545 
L 275.822589 264.956545 
L 275.822589 264.956545 
L 275.822589 264.956545 
z
" style="fill:#f9d1ce;"/>
   </g>
   <g id="patch_31">
    <path clip-path="url(#p47bec63b2b)" d="M 314.768462 264.956545 
L 314.768462 264.956545 
L 314.768462 264.956545 
L 314.768462 264.956545 
z
" style="fill:#f9d1ce;"/>
   </g>
   <g id="patch_32">
    <path clip-path="url(#p47bec63b2b)" d="M 354.142311 264.956545 
L 354.142311 264.956545 
L 354.142311 264.956545 
L 354.142311 264.956545 
z
" style="fill:#f9d1ce;"/>
   </g>
   <g id="patch_33">
    <path clip-path="url(#p47bec63b2b)" d="M 393.516161 264.956545 
L 393.516161 264.956545 
L 393.516161 264.956545 
L 393.516161 264.956545 
z
" style="fill:#f9d1ce;"/>
   </g>
   <g id="patch_34">
    <path clip-path="url(#p47bec63b2b)" d="M 432.034057 264.956545 
L 432.034057 264.956545 
L 432.034057 264.956545 
L 432.034057 264.956545 
z
" style="fill:#f9d1ce;"/>
   </g>
   <g id="patch_35">
    <path clip-path="url(#p47bec63b2b)" d="M 470.97993 264.956545 
L 470.97993 264.956545 
L 470.97993 264.956545 
L 470.97993 264.956545 
z
" style="fill:#f9d1ce;"/>
   </g>
   <g id="patch_36">
    <path clip-path="url(#p47bec63b2b)" d="M 510.35378 264.956545 
L 510.35378 264.956545 
L 510.35378 264.956545 
L 510.35378 264.956545 
z
" style="fill:#f9d1ce;"/>
   </g>
   <g id="patch_37">
    <path clip-path="url(#p47bec63b2b)" d="M 549.727629 264.956545 
L 549.727629 264.956545 
L 549.727629 264.956545 
L 549.727629 264.956545 
z
" style="fill:#f9d1ce;"/>
   </g>
   <g id="patch_38">
    <path clip-path="url(#p47bec63b2b)" d="M 588.673502 264.956545 
L 588.673502 264.956545 
L 588.673502 264.956545 
L 588.673502 264.956545 
z
" style="fill:#f9d1ce;"/>
   </g>
   <g id="patch_39">
    <path clip-path="url(#p47bec63b2b)" d="M 627.619375 264.956545 
L 627.619375 264.956545 
L 627.619375 264.956545 
L 627.619375 264.956545 
z
" style="fill:#f9d1ce;"/>
   </g>
   <g id="patch_40">
    <path clip-path="url(#p47bec63b2b)" d="M 41.719375 264.956545 
L 41.719375 264.956545 
L 41.719375 264.956545 
L 41.719375 264.956545 
z
" style="fill:#f1a7a0;"/>
   </g>
   <g id="patch_41">
    <path clip-path="url(#p47bec63b2b)" d="M 81.093225 264.956545 
L 81.093225 264.956545 
L 81.093225 264.956545 
L 81.093225 264.956545 
z
" style="fill:#f1a7a0;"/>
   </g>
   <g id="patch_42">
    <path clip-path="url(#p47bec63b2b)" d="M 119.611121 264.956545 
L 119.611121 264.956545 
L 119.611121 264.956545 
L 119.611121 264.956545 
z
" style="fill:#f1a7a0;"/>
   </g>
   <g id="patch_43">
    <path clip-path="url(#p47bec63b2b)" d="M 158.556994 264.956545 
L 158.556994 264.956545 
L 158.556994 264.956545 
L 158.556994 264.956545 
z
" style="fill:#f1a7a0;"/>
   </g>
   <g id="patch_44">
    <path clip-path="url(#p47bec63b2b)" d="M 197.930843 264.956545 
L 197.930843 264.956545 
L 197.930843 264.956545 
L 197.930843 264.956545 
z
" style="fill:#f1a7a0;"/>
   </g>
   <g id="patch_45">
    <path clip-path="url(#p47bec63b2b)" d="M 237.304693 264.956545 
L 237.304693 264.956545 
L 237.304693 264.956545 
L 237.304693 264.956545 
z
" style="fill:#f1a7a0;"/>
   </g>
   <g id="patch_46">
    <path clip-path="url(#p47bec63b2b)" d="M 275.822589 264.956545 
L 275.822589 264.956545 
L 275.822589 264.956545 
L 275.822589 264.956545 
z
" style="fill:#f1a7a0;"/>
   </g>
   <g id="patch_47">
    <path clip-path="url(#p47bec63b2b)" d="M 314.768462 88.849289 
L 314.768462 88.849289 
L 314.768462 -87.257967 
L 314.768462 -87.257967 
z
" style="fill:#f1a7a0;"/>
   </g>
   <g id="patch_48">
    <path clip-path="url(#p47bec63b2b)" d="M 354.142311 78.430374 
L 354.142311 78.430374 
L 354.142311 -113.820202 
L 354.142311 -113.820202 
z
" style="fill:#f1a7a0;"/>
   </g>
   <g id="patch_49">
    <path clip-path="url(#p47bec63b2b)" d="M 393.516161 89.584924 
L 393.516161 89.584924 
L 393.516161 -93.845904 
L 393.516161 -93.845904 
z
" style="fill:#f1a7a0;"/>
   </g>
   <g id="patch_50">
    <path clip-path="url(#p47bec63b2b)" d="M 432.034057 119.910782 
L 432.034057 119.910782 
L 432.034057 -35.528988 
L 432.034057 -35.528988 
z
" style="fill:#f1a7a0;"/>
   </g>
   <g id="patch_51">
    <path clip-path="url(#p47bec63b2b)" d="M 470.97993 136.914125 
L 470.97993 136.914125 
L 470.97993 -3.857105 
L 470.97993 -3.857105 
z
" style="fill:#f1a7a0;"/>
   </g>
   <g id="patch_52">
    <path clip-path="url(#p47bec63b2b)" d="M 510.35378 157.379755 
L 510.35378 157.379755 
L 510.35378 34.739353 
L 510.35378 34.739353 
z
" style="fill:#f1a7a0;"/>
   </g>
   <g id="patch_53">
    <path clip-path="url(#p47bec63b2b)" d="M 549.727629 174.300613 
L 549.727629 174.300613 
L 549.727629 66.246268 
L 549.727629 66.246268 
z
" style="fill:#f1a7a0;"/>
   </g>
   <g id="patch_54">
    <path clip-path="url(#p47bec63b2b)" d="M 588.673502 189.398952 
L 588.673502 189.398952 
L 588.673502 94.108144 
L 588.673502 94.108144 
z
" style="fill:#f1a7a0;"/>
   </g>
   <g id="patch_55">
    <path clip-path="url(#p47bec63b2b)" d="M 627.619375 202.426719 
L 627.619375 202.426719 
L 627.619375 117.828877 
L 627.619375 117.828877 
z
" style="fill:#f1a7a0;"/>
   </g>
   <g id="patch_56">
    <path clip-path="url(#p47bec63b2b)" d="M 41.719375 264.956545 
L 41.719375 264.956545 
L 41.719375 264.956545 
L 41.719375 264.956545 
z
" style="fill:#f1a7a0;"/>
   </g>
   <g id="patch_57">
    <path clip-path="url(#p47bec63b2b)" d="M 81.093225 264.956545 
L 81.093225 264.956545 
L 81.093225 264.956545 
L 81.093225 264.956545 
z
" style="fill:#f1a7a0;"/>
   </g>
   <g id="patch_58">
    <path clip-path="url(#p47bec63b2b)" d="M 119.611121 264.956545 
L 119.611121 264.956545 
L 119.611121 264.956545 
L 119.611121 264.956545 
z
" style="fill:#f1a7a0;"/>
   </g>
   <g id="patch_59">
    <path clip-path="url(#p47bec63b2b)" d="M 158.556994 264.956545 
L 158.556994 264.956545 
L 158.556994 264.956545 
L 158.556994 264.956545 
z
" style="fill:#f1a7a0;"/>
   </g>
   <g id="patch_60">
    <path clip-path="url(#p47bec63b2b)" d="M 197.930843 264.956545 
L 197.930843 264.956545 
L 197.930843 264.956545 
L 197.930843 264.956545 
z
" style="fill:#f1a7a0;"/>
   </g>
   <g id="patch_61">
    <path clip-path="url(#p47bec63b2b)" d="M 237.304693 264.956545 
L 237.304693 264.956545 
L 237.304693 264.956545 
L 237.304693 264.956545 
z
" style="fill:#f1a7a0;"/>
   </g>
   <g id="patch_62">
    <path clip-path="url(#p47bec63b2b)" d="M 275.822589 264.956545 
L 275.822589 264.956545 
L 275.822589 264.956545 
L 275.822589 264.956545 
z
" style="fill:#f1a7a0;"/>
   </g>
   <g id="patch_63">
    <path clip-path="url(#p47bec63b2b)" d="M 314.768462 264.956545 
L 314.768462 264.956545 
L 314.768462 264.956545 
L 314.768462 264.956545 
z
" style="fill:#f1a7a0;"/>
   </g>
   <g id="patch_64">
    <path clip-path="url(#p47bec63b2b)" d="M 354.142311 264.956545 
L 354.142311 264.956545 
L 354.142311 264.956545 
L 354.142311 264.956545 
z
" style="fill:#f1a7a0;"/>
   </g>
   <g id="patch_65">
    <path clip-path="url(#p47bec63b2b)" d="M 393.516161 264.956545 
L 393.516161 264.956545 
L 393.516161 264.956545 
L 393.516161 264.956545 
z
" style="fill:#f1a7a0;"/>
   </g>
   <g id="patch_66">
    <path clip-path="url(#p47bec63b2b)" d="M 432.034057 264.956545 
L 432.034057 264.956545 
L 432.034057 264.956545 
L 432.034057 264.956545 
z
" style="fill:#f1a7a0;"/>
   </g>
   <g id="patch_67">
    <path clip-path="url(#p47bec63b2b)" d="M 470.97993 264.956545 
L 470.97993 264.956545 
L 470.97993 264.956545 
L 470.97993 264.956545 
z
" style="fill:#f1a7a0;"/>
   </g>
   <g id="patch_68">
    <path clip-path="url(#p47bec63b2b)" d="M 510.35378 264.956545 
L 510.35378 264.956545 
L 510.35378 264.956545 
L 510.35378 264.956545 
z
" style="fill:#f1a7a0;"/>
   </g>
   <g id="patch_69">
    <path clip-path="url(#p47bec63b2b)" d="M 549.727629 264.956545 
L 549.727629 264.956545 
L 549.727629 264.956545 
L 549.727629 264.956545 
z
" style="fill:#f1a7a0;"/>
   </g>
   <g id="patch_70">
    <path clip-path="url(#p47bec63b2b)" d="M 588.673502 264.956545 
L 588.673502 264.956545 
L 588.673502 264.956545 
L 588.673502 264.956545 
z
" style="fill:#f1a7a0;"/>
   </g>
   <g id="patch_71">
    <path clip-path="url(#p47bec63b2b)" d="M 627.619375 264.956545 
L 627.619375 264.956545 
L 627.619375 264.956545 
L 627.619375 264.956545 
z
" style="fill:#f1a7a0;"/>
   </g>
   <g id="patch_72">
    <path clip-path="url(#p47bec63b2b)" d="M 41.719375 264.956545 
L 41.719375 264.956545 
L 41.719375 264.956545 
L 41.719375 264.956545 
z
" style="fill:#eb7b72;"/>
   </g>
   <g id="patch_73">
    <path clip-path="url(#p47bec63b2b)" d="M 81.093225 264.956545 
L 81.093225 264.956545 
L 81.093225 264.956545 
L 81.093225 264.956545 
z
" style="fill:#eb7b72;"/>
   </g>
   <g id="patch_74">
    <path clip-path="url(#p47bec63b2b)" d="M 119.611121 264.956545 
L 119.611121 264.956545 
L 119.611121 264.956545 
L 119.611121 264.956545 
z
" style="fill:#eb7b72;"/>
   </g>
   <g id="patch_75">
    <path clip-path="url(#p47bec63b2b)" d="M 158.556994 264.956545 
L 158.556994 264.956545 
L 158.556994 264.956545 
L 158.556994 264.956545 
z
" style="fill:#eb7b72;"/>
   </g>
   <g id="patch_76">
    <path clip-path="url(#p47bec63b2b)" d="M 197.930843 264.956545 
L 197.930843 264.956545 
L 197.930843 264.956545 
L 197.930843 264.956545 
z
" style="fill:#eb7b72;"/>
   </g>
   <g id="patch_77">
    <path clip-path="url(#p47bec63b2b)" d="M 237.304693 264.956545 
L 237.304693 264.956545 
L 237.304693 264.956545 
L 237.304693 264.956545 
z
" style="fill:#eb7b72;"/>
   </g>
   <g id="patch_78">
    <path clip-path="url(#p47bec63b2b)" d="M 275.822589 264.956545 
L 275.822589 264.956545 
L 275.822589 264.956545 
L 275.822589 264.956545 
z
" style="fill:#eb7b72;"/>
   </g>
   <g id="patch_79">
    <path clip-path="url(#p47bec63b2b)" d="M 314.768462 -87.257967 
L 314.768462 -87.257967 
L 314.768462 -263.365223 
L 314.768462 -263.365223 
z
" style="fill:#eb7b72;"/>
   </g>
   <g id="patch_80">
    <path clip-path="url(#p47bec63b2b)" d="M 354.142311 -113.820202 
L 354.142311 -113.820202 
L 354.142311 -309.50542 
L 354.142311 -309.50542 
z
" style="fill:#eb7b72;"/>
   </g>
   <g id="patch_81">
    <path clip-path="url(#p47bec63b2b)" d="M 393.516161 -93.845904 
L 393.516161 -93.845904 
L 393.516161 -282.112255 
L 393.516161 -282.112255 
z
" style="fill:#eb7b72;"/>
   </g>
   <g id="patch_82">
    <path clip-path="url(#p47bec63b2b)" d="M 432.034057 -35.528988 
L 432.034057 -35.528988 
L 432.034057 -197.205163 
L 432.034057 -197.205163 
z
" style="fill:#eb7b72;"/>
   </g>
   <g id="patch_83">
    <path clip-path="url(#p47bec63b2b)" d="M 470.97993 -3.857105 
L 470.97993 -3.857105 
L 470.97993 -152.265621 
L 470.97993 -152.265621 
z
" style="fill:#eb7b72;"/>
   </g>
   <g id="patch_84">
    <path clip-path="url(#p47bec63b2b)" d="M 510.35378 34.739353 
L 510.35378 34.739353 
L 510.35378 -96.939215 
L 510.35378 -96.939215 
z
" style="fill:#eb7b72;"/>
   </g>
   <g id="patch_85">
    <path clip-path="url(#p47bec63b2b)" d="M 549.727629 66.246268 
L 549.727629 66.246268 
L 549.727629 -52.247125 
L 549.727629 -52.247125 
z
" style="fill:#eb7b72;"/>
   </g>
   <g id="patch_86">
    <path clip-path="url(#p47bec63b2b)" d="M 588.673502 94.108144 
L 588.673502 94.108144 
L 588.673502 -13.022591 
L 588.673502 -13.022591 
z
" style="fill:#eb7b72;"/>
   </g>
   <g id="patch_87">
    <path clip-path="url(#p47bec63b2b)" d="M 627.619375 117.828877 
L 627.619375 117.828877 
L 627.619375 19.990225 
L 627.619375 19.990225 
z
" style="fill:#eb7b72;"/>
   </g>
   <g id="patch_88">
    <path clip-path="url(#p47bec63b2b)" d="M 41.719375 264.956545 
L 41.719375 264.956545 
L 41.719375 264.956545 
L 41.719375 264.956545 
z
" style="fill:#eb7b72;"/>
   </g>
   <g id="patch_89">
    <path clip-path="url(#p47bec63b2b)" d="M 81.093225 264.956545 
L 81.093225 264.956545 
L 81.093225 264.956545 
L 81.093225 264.956545 
z
" style="fill:#eb7b72;"/>
   </g>
   <g id="patch_90">
    <path clip-path="url(#p47bec63b2b)" d="M 119.611121 264.956545 
L 119.611121 264.956545 
L 119.611121 264.956545 
L 119.611121 264.956545 
z
" style="fill:#eb7b72;"/>
   </g>
   <g id="patch_91">
    <path clip-path="url(#p47bec63b2b)" d="M 158.556994 264.956545 
L 158.556994 264.956545 
L 158.556994 264.956545 
L 158.556994 264.956545 
z
" style="fill:#eb7b72;"/>
   </g>
   <g id="patch_92">
    <path clip-path="url(#p47bec63b2b)" d="M 197.930843 264.956545 
L 197.930843 264.956545 
L 197.930843 264.956545 
L 197.930843 264.956545 
z
" style="fill:#eb7b72;"/>
   </g>
   <g id="patch_93">
    <path clip-path="url(#p47bec63b2b)" d="M 237.304693 264.956545 
L 237.304693 264.956545 
L 237.304693 264.956545 
L 237.304693 264.956545 
z
" style="fill:#eb7b72;"/>
   </g>
   <g id="patch_94">
    <path clip-path="url(#p47bec63b2b)" d="M 275.822589 264.956545 
L 275.822589 264.956545 
L 275.822589 264.956545 
L 275.822589 264.956545 
z
" style="fill:#eb7b72;"/>
   </g>
   <g id="patch_95">
    <path clip-path="url(#p47bec63b2b)" d="M 314.768462 264.956545 
L 314.768462 264.956545 
L 314.768462 264.956545 
L 314.768462 264.956545 
z
" style="fill:#eb7b72;"/>
   </g>
   <g id="patch_96">
    <path clip-path="url(#p47bec63b2b)" d="M 354.142311 264.956545 
L 354.142311 264.956545 
L 354.142311 264.956545 
L 354.142311 264.956545 
z
" style="fill:#eb7b72;"/>
   </g>
   <g id="patch_97">
    <path clip-path="url(#p47bec63b2b)" d="M 393.516161 264.956545 
L 393.516161 264.956545 
L 393.516161 264.956545 
L 393.516161 264.956545 
z
" style="fill:#eb7b72;"/>
   </g>
   <g id="patch_98">
    <path clip-path="url(#p47bec63b2b)" d="M 432.034057 264.956545 
L 432.034057 264.956545 
L 432.034057 264.956545 
L 432.034057 264.956545 
z
" style="fill:#eb7b72;"/>
   </g>
   <g id="patch_99">
    <path clip-path="url(#p47bec63b2b)" d="M 470.97993 264.956545 
L 470.97993 264.956545 
L 470.97993 264.956545 
L 470.97993 264.956545 
z
" style="fill:#eb7b72;"/>
   </g>
   <g id="patch_100">
    <path clip-path="url(#p47bec63b2b)" d="M 510.35378 264.956545 
L 510.35378 264.956545 
L 510.35378 264.956545 
L 510.35378 264.956545 
z
" style="fill:#eb7b72;"/>
   </g>
   <g id="patch_101">
    <path clip-path="url(#p47bec63b2b)" d="M 549.727629 264.956545 
L 549.727629 264.956545 
L 549.727629 264.956545 
L 549.727629 264.956545 
z
" style="fill:#eb7b72;"/>
   </g>
   <g id="patch_102">
    <path clip-path="url(#p47bec63b2b)" d="M 588.673502 264.956545 
L 588.673502 264.956545 
L 588.673502 264.956545 
L 588.673502 264.956545 
z
" style="fill:#eb7b72;"/>
   </g>
   <g id="patch_103">
    <path clip-path="url(#p47bec63b2b)" d="M 627.619375 264.956545 
L 627.619375 264.956545 
L 627.619375 264.956545 
L 627.619375 264.956545 
z
" style="fill:#eb7b72;"/>
   </g>
   <g id="patch_104">
    <path clip-path="url(#p47bec63b2b)" d="M 41.719375 264.956545 
L 41.719375 264.956545 
L 41.719375 264.956545 
L 41.719375 264.956545 
z
" style="fill:#d52b1e;"/>
   </g>
   <g id="patch_105">
    <path clip-path="url(#p47bec63b2b)" d="M 81.093225 264.956545 
L 81.093225 264.956545 
L 81.093225 264.956545 
L 81.093225 264.956545 
z
" style="fill:#d52b1e;"/>
   </g>
   <g id="patch_106">
    <path clip-path="url(#p47bec63b2b)" d="M 119.611121 264.956545 
L 119.611121 264.956545 
L 119.611121 264.956545 
L 119.611121 264.956545 
z
" style="fill:#d52b1e;"/>
   </g>
   <g id="patch_107">
    <path clip-path="url(#p47bec63b2b)" d="M 158.556994 264.956545 
L 158.556994 264.956545 
L 158.556994 264.956545 
L 158.556994 264.956545 
z
" style="fill:#d52b1e;"/>
   </g>
   <g id="patch_108">
    <path clip-path="url(#p47bec63b2b)" d="M 197.930843 264.956545 
L 197.930843 264.956545 
L 197.930843 264.956545 
L 197.930843 264.956545 
z
" style="fill:#d52b1e;"/>
   </g>
   <g id="patch_109">
    <path clip-path="url(#p47bec63b2b)" d="M 237.304693 264.956545 
L 237.304693 264.956545 
L 237.304693 264.956545 
L 237.304693 264.956545 
z
" style="fill:#d52b1e;"/>
   </g>
   <g id="patch_110">
    <path clip-path="url(#p47bec63b2b)" d="M 275.822589 264.956545 
L 275.822589 264.956545 
L 275.822589 264.956545 
L 275.822589 264.956545 
z
" style="fill:#d52b1e;"/>
   </g>
   <g id="patch_111">
    <path clip-path="url(#p47bec63b2b)" d="M 314.768462 -263.365223 
L 314.768462 -263.365223 
L 314.768462 -439.472479 
L 314.768462 -439.472479 
z
" style="fill:#d52b1e;"/>
   </g>
   <g id="patch_112">
    <path clip-path="url(#p47bec63b2b)" d="M 354.142311 -309.50542 
L 354.142311 -309.50542 
L 354.142311 -507.957434 
L 354.142311 -507.957434 
z
" style="fill:#d52b1e;"/>
   </g>
   <g id="patch_113">
    <path clip-path="url(#p47bec63b2b)" d="M 393.516161 -282.112255 
L 393.516161 -282.112255 
L 393.516161 -474.273889 
L 393.516161 -474.273889 
z
" style="fill:#d52b1e;"/>
   </g>
   <g id="patch_114">
    <path clip-path="url(#p47bec63b2b)" d="M 432.034057 -197.205163 
L 432.034057 -197.205163 
L 432.034057 -363.905109 
L 432.034057 -363.905109 
z
" style="fill:#d52b1e;"/>
   </g>
   <g id="patch_115">
    <path clip-path="url(#p47bec63b2b)" d="M 470.97993 -152.265621 
L 470.97993 -152.265621 
L 470.97993 -306.826394 
L 470.97993 -306.826394 
z
" style="fill:#d52b1e;"/>
   </g>
   <g id="patch_116">
    <path clip-path="url(#p47bec63b2b)" d="M 510.35378 -96.939215 
L 510.35378 -96.939215 
L 510.35378 -235.898528 
L 510.35378 -235.898528 
z
" style="fill:#d52b1e;"/>
   </g>
   <g id="patch_117">
    <path clip-path="url(#p47bec63b2b)" d="M 549.727629 -52.247125 
L 549.727629 -52.247125 
L 549.727629 -179.14975 
L 549.727629 -179.14975 
z
" style="fill:#d52b1e;"/>
   </g>
   <g id="patch_118">
    <path clip-path="url(#p47bec63b2b)" d="M 588.673502 -13.022591 
L 588.673502 -13.022591 
L 588.673502 -129.691047 
L 588.673502 -129.691047 
z
" style="fill:#d52b1e;"/>
   </g>
   <g id="patch_119">
    <path clip-path="url(#p47bec63b2b)" d="M 627.619375 19.990225 
L 627.619375 19.990225 
L 627.619375 -88.514633 
L 627.619375 -88.514633 
z
" style="fill:#d52b1e;"/>
   </g>
   <g id="patch_120">
    <path clip-path="url(#p47bec63b2b)" d="M 41.719375 264.956545 
L 41.719375 264.956545 
L 41.719375 264.956545 
L 41.719375 264.956545 
z
" style="fill:#d52b1e;"/>
   </g>
   <g id="patch_121">
    <path clip-path="url(#p47bec63b2b)" d="M 81.093225 264.956545 
L 81.093225 264.956545 
L 81.093225 264.956545 
L 81.093225 264.956545 
z
" style="fill:#d52b1e;"/>
   </g>
   <g id="patch_122">
    <path clip-path="url(#p47bec63b2b)" d="M 119.611121 264.956545 
L 119.611121 264.956545 
L 119.611121 264.956545 
L 119.611121 264.956545 
z
" style="fill:#d52b1e;"/>
   </g>
   <g id="patch_123">
    <path clip-path="url(#p47bec63b2b)" d="M 158.556994 264.956545 
L 158.556994 264.956545 
L 158.556994 264.956545 
L 158.556994 264.956545 
z
" style="fill:#d52b1e;"/>
   </g>
   <g id="patch_124">
    <path clip-path="url(#p47bec63b2b)" d="M 197.930843 264.956545 
L 197.930843 264.956545 
L 197.930843 264.956545 
L 197.930843 264.956545 
z
" style="fill:#d52b1e;"/>
   </g>
   <g id="patch_125">
    <path clip-path="url(#p47bec63b2b)" d="M 237.304693 264.956545 
L 237.304693 264.956545 
L 237.304693 264.956545 
L 237.304693 264.956545 
z
" style="fill:#d52b1e;"/>
   </g>
   <g id="patch_126">
    <path clip-path="url(#p47bec63b2b)" d="M 275.822589 264.956545 
L 275.822589 264.956545 
L 275.822589 264.956545 
L 275.822589 264.956545 
z
" style="fill:#d52b1e;"/>
   </g>
   <g id="patch_127">
    <path clip-path="url(#p47bec63b2b)" d="M 314.768462 264.956545 
L 314.768462 264.956545 
L 314.768462 264.956545 
L 314.768462 264.956545 
z
" style="fill:#d52b1e;"/>
   </g>
   <g id="patch_128">
    <path clip-path="url(#p47bec63b2b)" d="M 354.142311 264.956545 
L 354.142311 264.956545 
L 354.142311 264.956545 
L 354.142311 264.956545 
z
" style="fill:#d52b1e;"/>
   </g>
   <g id="patch_129">
    <path clip-path="url(#p47bec63b2b)" d="M 393.516161 264.956545 
L 393.516161 264.956545 
L 393.516161 264.956545 
L 393.516161 264.956545 
z
" style="fill:#d52b1e;"/>
   </g>
   <g id="patch_130">
    <path clip-path="url(#p47bec63b2b)" d="M 432.034057 264.956545 
L 432.034057 264.956545 
L 432.034057 264.956545 
L 432.034057 264.956545 
z
" style="fill:#d52b1e;"/>
   </g>
   <g id="patch_131">
    <path clip-path="url(#p47bec63b2b)" d="M 470.97993 264.956545 
L 470.97993 264.956545 
L 470.97993 264.956545 
L 470.97993 264.956545 
z
" style="fill:#d52b1e;"/>
   </g>
   <g id="patch_132">
    <path clip-path="url(#p47bec63b2b)" d="M 510.35378 264.956545 
L 510.35378 264.956545 
L 510.35378 264.956545 
L 510.35378 264.956545 
z
" style="fill:#d52b1e;"/>
   </g>
   <g id="patch_133">
    <path clip-path="url(#p47bec63b2b)" d="M 549.727629 264.956545 
L 549.727629 264.956545 
L 549.727629 264.956545 
L 549.727629 264.956545 
z
" style="fill:#d52b1e;"/>
   </g>
   <g id="patch_134">
    <path clip-path="url(#p47bec63b2b)" d="M 588.673502 264.956545 
L 588.673502 264.956545 
L 588.673502 264.956545 
L 588.673502 264.956545 
z
" style="fill:#d52b1e;"/>
   </g>
   <g id="patch_135">
    <path clip-path="url(#p47bec63b2b)" d="M 627.619375 264.956545 
L 627.619375 264.956545 
L 627.619375 264.956545 
L 627.619375 264.956545 
z
" style="fill:#d52b1e;"/>
   </g>
   <g id="PolyCollection_1">
    <path clip-path="url(#p47bec63b2b)" d="M 314.768462 88.849289 
L 314.768462 88.849289 
L 354.142311 78.430374 
L 393.516161 89.584924 
L 432.034057 119.910782 
L 470.97993 136.914125 
L 510.35378 157.379755 
L 549.727629 174.300613 
L 588.673502 189.398952 
L 627.619375 202.426719 
L 627.619375 81.788235 
L 627.619375 81.788235 
L 588.673502 81.52405 
L 549.727629 79.189293 
L 510.35378 75.032016 
L 470.97993 67.329968 
L 432.034057 63.090208 
L 393.516161 45.527931 
L 354.142311 47.136963 
L 314.768462 88.849289 
z
" style="fill:#f9d1ce;"/>
   </g>
   <g id="PolyCollection_2">
    <path clip-path="url(#p47bec63b2b)" d="M 314.768462 88.849289 
L 314.768462 88.849289 
L 354.142311 72.70597 
L 393.516161 81.525718 
L 432.034057 109.516775 
L 470.97993 124.185315 
L 510.35378 142.316144 
L 549.727629 156.9022 
L 588.673502 169.665738 
L 627.619375 180.358703 
L 627.619375 103.856251 
L 627.619375 103.856251 
L 588.673502 101.257264 
L 549.727629 96.587705 
L 510.35378 90.095627 
L 470.97993 80.058777 
L 432.034057 73.484215 
L 393.516161 53.587137 
L 354.142311 52.861367 
L 314.768462 88.849289 
z
" style="fill:#f1a7a0;"/>
   </g>
   <g id="PolyCollection_3">
    <path clip-path="url(#p47bec63b2b)" d="M 314.768462 88.849289 
L 314.768462 88.849289 
L 354.142311 69.271327 
L 393.516161 76.690194 
L 432.034057 103.28037 
L 470.97993 116.54803 
L 510.35378 133.277977 
L 549.727629 146.463153 
L 588.673502 157.82581 
L 627.619375 167.117894 
L 627.619375 117.09706 
L 627.619375 117.09706 
L 588.673502 113.097192 
L 549.727629 107.026752 
L 510.35378 99.133793 
L 470.97993 87.696063 
L 432.034057 79.72062 
L 393.516161 58.422661 
L 354.142311 56.29601 
L 314.768462 88.849289 
z
" style="fill:#eb7b72;"/>
   </g>
   <g id="PolyCollection_4">
    <path clip-path="url(#p47bec63b2b)" d="M 314.768462 88.849289 
L 314.768462 88.849289 
L 354.142311 66.504531 
L 393.516161 72.794911 
L 432.034057 98.2566 
L 470.97993 110.395772 
L 510.35378 125.997232 
L 549.727629 138.053921 
L 588.673502 148.28809 
L 627.619375 156.451687 
L 627.619375 127.763267 
L 627.619375 127.763267 
L 588.673502 122.634912 
L 549.727629 115.435985 
L 510.35378 106.414538 
L 470.97993 93.84832 
L 432.034057 84.74439 
L 393.516161 62.317943 
L 354.142311 59.062806 
L 314.768462 88.849289 
z
" style="fill:#d52b1e;"/>
   </g>
   <g id="line2d_23">
    <path clip-path="url(#p47bec63b2b)" d="M 41.719375 256.47364 
L 81.093225 256.239178 
L 119.611121 255.246297 
L 158.556994 242.849556 
L 197.930843 196.407859 
L 237.304693 153.860406 
L 275.822589 119.85382 
L 314.768462 88.849289 
L 354.142311 62.783669 
L 393.516161 67.556427 
L 432.034057 91.500495 
L 470.97993 102.122046 
L 510.35378 116.205885 
L 549.727629 126.744953 
L 588.673502 135.461501 
L 627.619375 142.107477 
" style="fill:none;stroke:#ffffff;stroke-linecap:square;stroke-width:3.5;"/>
   </g>
   <g id="line2d_24">
    <path clip-path="url(#p47bec63b2b)" d="M 41.719375 256.47364 
L 81.093225 256.239178 
L 119.611121 255.246297 
L 158.556994 242.849556 
L 197.930843 196.407859 
L 237.304693 153.860406 
L 275.822589 119.85382 
L 314.768462 88.849289 
L 354.142311 62.783669 
L 393.516161 67.556427 
L 432.034057 91.500495 
L 470.97993 102.122046 
L 510.35378 116.205885 
L 549.727629 126.744953 
L 588.673502 135.461501 
L 627.619375 142.107477 
" style="fill:none;stroke:#000000;stroke-linecap:square;stroke-width:2.5;"/>
   </g>
  </g>
 </g>
 <defs>
  <clipPath id="p47bec63b2b">
   <rect height="266.364" width="585.9" x="41.719375" y="10.7"/>
  </clipPath>
 </defs>
</svg>
