<?xml version="1.0" encoding="utf-8" standalone="no"?>
<!DOCTYPE svg PUBLIC "-//W3C//DTD SVG 1.1//EN"
  "http://www.w3.org/Graphics/SVG/1.1/DTD/svg11.dtd">
<!-- Created with matplotlib (http://matplotlib.org/) -->
<svg height="355pt" version="1.1" viewBox="0 0 642 355" width="642pt" xmlns="http://www.w3.org/2000/svg" xmlns:xlink="http://www.w3.org/1999/xlink">
 <defs>
  <style type="text/css">
*{stroke-linecap:butt;stroke-linejoin:round;}
  </style>
 </defs>
 <g id="figure_1">
  <g id="patch_1">
   <path d="M -0 355.436562 
L 642.320313 355.436562 
L 642.320313 0 
L -0 0 
z
" style="fill:none;"/>
  </g>
  <g id="axes_1">
   <g id="patch_2">
    <path d="M 41.719375 282.5 
L 627.619375 282.5 
L 627.619375 10.7 
L 41.719375 10.7 
z
" style="fill:none;"/>
   </g>
   <g id="matplotlib.axis_1">
    <g id="xtick_1">
     <g id="line2d_1">
      <defs>
       <path d="M 0 0 
L 0 3.5 
" id="m2a155da977" style="stroke:#000000;stroke-width:0.8;"/>
      </defs>
      <g>
       <use style="stroke:#000000;stroke-width:0.8;" x="41.719375" xlink:href="#m2a155da977" y="282.5"/>
      </g>
     </g>
     <g id="text_1">
      <!-- IV/20 -->
      <defs>
       <path d="M 9.328125 0 
L 9.328125 71.578125 
L 18.796875 71.578125 
L 18.796875 0 
z
" id="ArialMT-49"/>
       <path d="M 28.171875 0 
L 0.4375 71.578125 
L 10.6875 71.578125 
L 29.296875 19.578125 
Q 31.546875 13.328125 33.0625 7.859375 
Q 34.71875 13.71875 36.921875 19.578125 
L 56.25 71.578125 
L 65.921875 71.578125 
L 37.890625 0 
z
" id="ArialMT-56"/>
       <path d="M 0 -1.21875 
L 20.75 72.796875 
L 27.78125 72.796875 
L 7.078125 -1.21875 
z
" id="ArialMT-2f"/>
       <path d="M 50.34375 8.453125 
L 50.34375 0 
L 3.03125 0 
Q 2.9375 3.171875 4.046875 6.109375 
Q 5.859375 10.9375 9.828125 15.625 
Q 13.8125 20.3125 21.34375 26.46875 
Q 33.015625 36.03125 37.109375 41.625 
Q 41.21875 47.21875 41.21875 52.203125 
Q 41.21875 57.421875 37.46875 61 
Q 33.734375 64.59375 27.734375 64.59375 
Q 21.390625 64.59375 17.578125 60.78125 
Q 13.765625 56.984375 13.71875 50.25 
L 4.6875 51.171875 
Q 5.609375 61.28125 11.65625 66.578125 
Q 17.71875 71.875 27.9375 71.875 
Q 38.234375 71.875 44.234375 66.15625 
Q 50.25 60.453125 50.25 52 
Q 50.25 47.703125 48.484375 43.546875 
Q 46.734375 39.40625 42.65625 34.8125 
Q 38.578125 30.21875 29.109375 22.21875 
Q 21.1875 15.578125 18.9375 13.203125 
Q 16.703125 10.84375 15.234375 8.453125 
z
" id="ArialMT-32"/>
       <path d="M 4.15625 35.296875 
Q 4.15625 48 6.765625 55.734375 
Q 9.375 63.484375 14.515625 67.671875 
Q 19.671875 71.875 27.484375 71.875 
Q 33.25 71.875 37.59375 69.546875 
Q 41.9375 67.234375 44.765625 62.859375 
Q 47.609375 58.5 49.21875 52.21875 
Q 50.828125 45.953125 50.828125 35.296875 
Q 50.828125 22.703125 48.234375 14.96875 
Q 45.65625 7.234375 40.5 3 
Q 35.359375 -1.21875 27.484375 -1.21875 
Q 17.140625 -1.21875 11.234375 6.203125 
Q 4.15625 15.140625 4.15625 35.296875 
M 13.1875 35.296875 
Q 13.1875 17.671875 17.3125 11.828125 
Q 21.4375 6 27.484375 6 
Q 33.546875 6 37.671875 11.859375 
Q 41.796875 17.71875 41.796875 35.296875 
Q 41.796875 52.984375 37.671875 58.78125 
Q 33.546875 64.59375 27.390625 64.59375 
Q 21.34375 64.59375 17.71875 59.46875 
Q 13.1875 52.9375 13.1875 35.296875 
" id="ArialMT-30"/>
      </defs>
      <g transform="translate(20.705781 301.884062)scale(0.18 -0.18)">
       <use xlink:href="#ArialMT-49"/>
       <use x="27.783203" xlink:href="#ArialMT-56"/>
       <use x="94.482422" xlink:href="#ArialMT-2f"/>
       <use x="122.265625" xlink:href="#ArialMT-32"/>
       <use x="177.880859" xlink:href="#ArialMT-30"/>
      </g>
     </g>
    </g>
    <g id="xtick_2">
     <g id="line2d_2">
      <g>
       <use style="stroke:#000000;stroke-width:0.8;" x="81.093225" xlink:href="#m2a155da977" y="282.5"/>
      </g>
     </g>
     <g id="text_2">
      <!-- I/21 -->
      <defs>
       <path d="M 37.25 0 
L 28.46875 0 
L 28.46875 56 
Q 25.296875 52.984375 20.140625 49.953125 
Q 14.984375 46.921875 10.890625 45.40625 
L 10.890625 53.90625 
Q 18.265625 57.375 23.78125 62.296875 
Q 29.296875 67.234375 31.59375 71.875 
L 37.25 71.875 
z
" id="ArialMT-31"/>
      </defs>
      <g transform="translate(66.082912 301.884062)scale(0.18 -0.18)">
       <use xlink:href="#ArialMT-49"/>
       <use x="27.783203" xlink:href="#ArialMT-2f"/>
       <use x="55.566406" xlink:href="#ArialMT-32"/>
       <use x="111.181641" xlink:href="#ArialMT-31"/>
      </g>
     </g>
    </g>
    <g id="xtick_3">
     <g id="line2d_3">
      <g>
       <use style="stroke:#000000;stroke-width:0.8;" x="119.611121" xlink:href="#m2a155da977" y="282.5"/>
      </g>
     </g>
     <g id="text_3">
      <!-- II -->
      <g transform="translate(114.610496 301.884062)scale(0.18 -0.18)">
       <use xlink:href="#ArialMT-49"/>
       <use x="27.783203" xlink:href="#ArialMT-49"/>
      </g>
     </g>
    </g>
    <g id="xtick_4">
     <g id="line2d_4">
      <g>
       <use style="stroke:#000000;stroke-width:0.8;" x="158.556994" xlink:href="#m2a155da977" y="282.5"/>
      </g>
     </g>
     <g id="text_4">
      <!-- III -->
      <g transform="translate(151.056056 301.884062)scale(0.18 -0.18)">
       <use xlink:href="#ArialMT-49"/>
       <use x="27.783203" xlink:href="#ArialMT-49"/>
       <use x="55.566406" xlink:href="#ArialMT-49"/>
      </g>
     </g>
    </g>
    <g id="xtick_5">
     <g id="line2d_5">
      <g>
       <use style="stroke:#000000;stroke-width:0.8;" x="197.930843" xlink:href="#m2a155da977" y="282.5"/>
      </g>
     </g>
     <g id="text_5">
      <!-- IV -->
      <g transform="translate(189.427249 301.884062)scale(0.18 -0.18)">
       <use xlink:href="#ArialMT-49"/>
       <use x="27.783203" xlink:href="#ArialMT-56"/>
      </g>
     </g>
    </g>
    <g id="xtick_6">
     <g id="line2d_6">
      <g>
       <use style="stroke:#000000;stroke-width:0.8;" x="237.304693" xlink:href="#m2a155da977" y="282.5"/>
      </g>
     </g>
     <g id="text_6">
      <!-- I/22 -->
      <g transform="translate(222.29438 301.884062)scale(0.18 -0.18)">
       <use xlink:href="#ArialMT-49"/>
       <use x="27.783203" xlink:href="#ArialMT-2f"/>
       <use x="55.566406" xlink:href="#ArialMT-32"/>
       <use x="111.181641" xlink:href="#ArialMT-32"/>
      </g>
     </g>
    </g>
    <g id="xtick_7">
     <g id="line2d_7">
      <g>
       <use style="stroke:#000000;stroke-width:0.8;" x="275.822589" xlink:href="#m2a155da977" y="282.5"/>
      </g>
     </g>
     <g id="text_7">
      <!-- II -->
      <g transform="translate(270.821964 301.884062)scale(0.18 -0.18)">
       <use xlink:href="#ArialMT-49"/>
       <use x="27.783203" xlink:href="#ArialMT-49"/>
      </g>
     </g>
    </g>
    <g id="xtick_8">
     <g id="line2d_8">
      <g>
       <use style="stroke:#000000;stroke-width:0.8;" x="314.768462" xlink:href="#m2a155da977" y="282.5"/>
      </g>
     </g>
     <g id="text_8">
      <!-- III -->
      <g transform="translate(307.267524 301.884062)scale(0.18 -0.18)">
       <use xlink:href="#ArialMT-49"/>
       <use x="27.783203" xlink:href="#ArialMT-49"/>
       <use x="55.566406" xlink:href="#ArialMT-49"/>
      </g>
     </g>
    </g>
    <g id="xtick_9">
     <g id="line2d_9">
      <g>
       <use style="stroke:#000000;stroke-width:0.8;" x="354.142311" xlink:href="#m2a155da977" y="282.5"/>
      </g>
     </g>
     <g id="text_9">
      <!-- IV -->
      <g transform="translate(345.638718 301.884062)scale(0.18 -0.18)">
       <use xlink:href="#ArialMT-49"/>
       <use x="27.783203" xlink:href="#ArialMT-56"/>
      </g>
     </g>
    </g>
    <g id="xtick_10">
     <g id="line2d_10">
      <g>
       <use style="stroke:#000000;stroke-width:0.8;" x="393.516161" xlink:href="#m2a155da977" y="282.5"/>
      </g>
     </g>
     <g id="text_10">
      <!-- I/23 -->
      <defs>
       <path d="M 4.203125 18.890625 
L 12.984375 20.0625 
Q 14.5 12.59375 18.140625 9.296875 
Q 21.78125 6 27 6 
Q 33.203125 6 37.46875 10.296875 
Q 41.75 14.59375 41.75 20.953125 
Q 41.75 27 37.796875 30.921875 
Q 33.84375 34.859375 27.734375 34.859375 
Q 25.25 34.859375 21.53125 33.890625 
L 22.515625 41.609375 
Q 23.390625 41.5 23.921875 41.5 
Q 29.546875 41.5 34.03125 44.421875 
Q 38.53125 47.359375 38.53125 53.46875 
Q 38.53125 58.296875 35.25 61.46875 
Q 31.984375 64.65625 26.8125 64.65625 
Q 21.6875 64.65625 18.265625 61.421875 
Q 14.84375 58.203125 13.875 51.765625 
L 5.078125 53.328125 
Q 6.6875 62.15625 12.390625 67.015625 
Q 18.109375 71.875 26.609375 71.875 
Q 32.46875 71.875 37.390625 69.359375 
Q 42.328125 66.84375 44.9375 62.5 
Q 47.5625 58.15625 47.5625 53.265625 
Q 47.5625 48.640625 45.0625 44.828125 
Q 42.578125 41.015625 37.703125 38.765625 
Q 44.046875 37.3125 47.5625 32.6875 
Q 51.078125 28.078125 51.078125 21.140625 
Q 51.078125 11.765625 44.234375 5.25 
Q 37.40625 -1.265625 26.953125 -1.265625 
Q 17.53125 -1.265625 11.296875 4.34375 
Q 5.078125 9.96875 4.203125 18.890625 
" id="ArialMT-33"/>
      </defs>
      <g transform="translate(378.505848 301.884062)scale(0.18 -0.18)">
       <use xlink:href="#ArialMT-49"/>
       <use x="27.783203" xlink:href="#ArialMT-2f"/>
       <use x="55.566406" xlink:href="#ArialMT-32"/>
       <use x="111.181641" xlink:href="#ArialMT-33"/>
      </g>
     </g>
    </g>
    <g id="xtick_11">
     <g id="line2d_11">
      <g>
       <use style="stroke:#000000;stroke-width:0.8;" x="432.034057" xlink:href="#m2a155da977" y="282.5"/>
      </g>
     </g>
     <g id="text_11">
      <!-- II -->
      <g transform="translate(427.033432 301.884062)scale(0.18 -0.18)">
       <use xlink:href="#ArialMT-49"/>
       <use x="27.783203" xlink:href="#ArialMT-49"/>
      </g>
     </g>
    </g>
    <g id="xtick_12">
     <g id="line2d_12">
      <g>
       <use style="stroke:#000000;stroke-width:0.8;" x="470.97993" xlink:href="#m2a155da977" y="282.5"/>
      </g>
     </g>
     <g id="text_12">
      <!-- III -->
      <g transform="translate(463.478993 301.884062)scale(0.18 -0.18)">
       <use xlink:href="#ArialMT-49"/>
       <use x="27.783203" xlink:href="#ArialMT-49"/>
       <use x="55.566406" xlink:href="#ArialMT-49"/>
      </g>
     </g>
    </g>
    <g id="xtick_13">
     <g id="line2d_13">
      <g>
       <use style="stroke:#000000;stroke-width:0.8;" x="510.35378" xlink:href="#m2a155da977" y="282.5"/>
      </g>
     </g>
     <g id="text_13">
      <!-- IV -->
      <g transform="translate(501.850186 301.884062)scale(0.18 -0.18)">
       <use xlink:href="#ArialMT-49"/>
       <use x="27.783203" xlink:href="#ArialMT-56"/>
      </g>
     </g>
    </g>
    <g id="xtick_14">
     <g id="line2d_14">
      <g>
       <use style="stroke:#000000;stroke-width:0.8;" x="549.727629" xlink:href="#m2a155da977" y="282.5"/>
      </g>
     </g>
     <g id="text_14">
      <!-- I/24 -->
      <defs>
       <path d="M 32.328125 0 
L 32.328125 17.140625 
L 1.265625 17.140625 
L 1.265625 25.203125 
L 33.9375 71.578125 
L 41.109375 71.578125 
L 41.109375 25.203125 
L 50.78125 25.203125 
L 50.78125 17.140625 
L 41.109375 17.140625 
L 41.109375 0 
z
M 32.328125 25.203125 
L 32.328125 57.46875 
L 9.90625 25.203125 
z
" id="ArialMT-34"/>
      </defs>
      <g transform="translate(534.717317 301.884062)scale(0.18 -0.18)">
       <use xlink:href="#ArialMT-49"/>
       <use x="27.783203" xlink:href="#ArialMT-2f"/>
       <use x="55.566406" xlink:href="#ArialMT-32"/>
       <use x="111.181641" xlink:href="#ArialMT-34"/>
      </g>
     </g>
    </g>
    <g id="xtick_15">
     <g id="line2d_15">
      <g>
       <use style="stroke:#000000;stroke-width:0.8;" x="588.673502" xlink:href="#m2a155da977" y="282.5"/>
      </g>
     </g>
     <g id="text_15">
      <!-- II -->
      <g transform="translate(583.672877 301.884062)scale(0.18 -0.18)">
       <use xlink:href="#ArialMT-49"/>
       <use x="27.783203" xlink:href="#ArialMT-49"/>
      </g>
     </g>
    </g>
    <g id="xtick_16">
     <g id="line2d_16">
      <g>
       <use style="stroke:#000000;stroke-width:0.8;" x="627.619375" xlink:href="#m2a155da977" y="282.5"/>
      </g>
     </g>
     <g id="text_16">
      <!-- III -->
      <g transform="translate(620.118438 301.884062)scale(0.18 -0.18)">
       <use xlink:href="#ArialMT-49"/>
       <use x="27.783203" xlink:href="#ArialMT-49"/>
       <use x="55.566406" xlink:href="#ArialMT-49"/>
      </g>
     </g>
    </g>
   </g>
   <g id="matplotlib.axis_2">
    <g id="ytick_1">
     <g id="text_17">
      <!-- 0 -->
      <g transform="translate(17.209688 273.842031)scale(0.18 -0.18)">
       <use xlink:href="#ArialMT-30"/>
      </g>
     </g>
    </g>
    <g id="ytick_2">
     <g id="text_18">
      <!-- 5 -->
      <defs>
       <path d="M 4.15625 18.75 
L 13.375 19.53125 
Q 14.40625 12.796875 18.140625 9.390625 
Q 21.875 6 27.15625 6 
Q 33.5 6 37.890625 10.78125 
Q 42.28125 15.578125 42.28125 23.484375 
Q 42.28125 31 38.0625 35.34375 
Q 33.84375 39.703125 27 39.703125 
Q 22.75 39.703125 19.328125 37.765625 
Q 15.921875 35.84375 13.96875 32.765625 
L 5.71875 33.84375 
L 12.640625 70.609375 
L 48.25 70.609375 
L 48.25 62.203125 
L 19.671875 62.203125 
L 15.828125 42.96875 
Q 22.265625 47.46875 29.34375 47.46875 
Q 38.71875 47.46875 45.15625 40.96875 
Q 51.609375 34.46875 51.609375 24.265625 
Q 51.609375 14.546875 45.953125 7.46875 
Q 39.0625 -1.21875 27.15625 -1.21875 
Q 17.390625 -1.21875 11.203125 4.25 
Q 5.03125 9.71875 4.15625 18.75 
" id="ArialMT-35"/>
      </defs>
      <g transform="translate(17.209688 213.442031)scale(0.18 -0.18)">
       <use xlink:href="#ArialMT-35"/>
      </g>
     </g>
    </g>
    <g id="ytick_3">
     <g id="text_19">
      <!-- 10 -->
      <g transform="translate(7.2 153.042031)scale(0.18 -0.18)">
       <use xlink:href="#ArialMT-31"/>
       <use x="55.615234" xlink:href="#ArialMT-30"/>
      </g>
     </g>
    </g>
    <g id="ytick_4">
     <g id="text_20">
      <!-- 15 -->
      <g transform="translate(7.2 92.642031)scale(0.18 -0.18)">
       <use xlink:href="#ArialMT-31"/>
       <use x="55.615234" xlink:href="#ArialMT-35"/>
      </g>
     </g>
    </g>
    <g id="ytick_5">
     <g id="text_21">
      <!-- 20 -->
      <g transform="translate(7.2 32.242031)scale(0.18 -0.18)">
       <use xlink:href="#ArialMT-32"/>
       <use x="55.615234" xlink:href="#ArialMT-30"/>
      </g>
     </g>
    </g>
   </g>
   <g id="line2d_17">
    <path clip-path="url(#p093ba86b71)" d="M 41.719375 267.4 
L 627.619375 267.4 
" style="fill:none;stroke:#000000;stroke-linecap:square;stroke-width:0.75;"/>
   </g>
   <g id="line2d_18">
    <path clip-path="url(#p093ba86b71)" d="M 41.719375 207 
L 627.619375 207 
" style="fill:none;stroke:#d2d2d2;stroke-linecap:square;stroke-width:0.5;"/>
   </g>
   <g id="line2d_19">
    <path clip-path="url(#p093ba86b71)" d="M 41.719375 146.6 
L 627.619375 146.6 
" style="fill:none;stroke:#d2d2d2;stroke-linecap:square;stroke-width:0.5;"/>
   </g>
   <g id="line2d_20">
    <path clip-path="url(#p093ba86b71)" d="M 41.719375 86.2 
L 627.619375 86.2 
" style="fill:none;stroke:#d2d2d2;stroke-linecap:square;stroke-width:0.5;"/>
   </g>
   <g id="legend_1">
    <g id="patch_3">
     <path d="M 104.21875 348.236562 
L 565.12 348.236562 
Q 568.72 348.236562 568.72 344.636562 
L 568.72 320.975 
Q 568.72 317.375 565.12 317.375 
L 104.21875 317.375 
Q 100.61875 317.375 100.61875 320.975 
L 100.61875 344.636562 
Q 100.61875 348.236562 104.21875 348.236562 
z
" style="fill:none;opacity:0.8;"/>
    </g>
    <g id="patch_4">
     <path d="M 107.81875 337.459062 
L 143.81875 337.459062 
L 143.81875 324.859062 
L 107.81875 324.859062 
z
" style="fill:#cccdf4;"/>
    </g>
    <g id="text_22">
     <!-- 90% -->
     <defs>
      <path d="M 5.46875 16.546875 
L 13.921875 17.328125 
Q 14.984375 11.375 18.015625 8.6875 
Q 21.046875 6 25.78125 6 
Q 29.828125 6 32.875 7.859375 
Q 35.9375 9.71875 37.890625 12.8125 
Q 39.84375 15.921875 41.15625 21.1875 
Q 42.484375 26.46875 42.484375 31.9375 
Q 42.484375 32.515625 42.4375 33.6875 
Q 39.796875 29.5 35.234375 26.875 
Q 30.671875 24.265625 25.34375 24.265625 
Q 16.453125 24.265625 10.296875 30.703125 
Q 4.15625 37.15625 4.15625 47.703125 
Q 4.15625 58.59375 10.578125 65.234375 
Q 17 71.875 26.65625 71.875 
Q 33.640625 71.875 39.421875 68.109375 
Q 45.21875 64.359375 48.21875 57.390625 
Q 51.21875 50.4375 51.21875 37.25 
Q 51.21875 23.53125 48.234375 15.40625 
Q 45.265625 7.28125 39.375 3.03125 
Q 33.5 -1.21875 25.59375 -1.21875 
Q 17.1875 -1.21875 11.859375 3.4375 
Q 6.546875 8.109375 5.46875 16.546875 
M 41.453125 48.140625 
Q 41.453125 55.71875 37.421875 60.15625 
Q 33.40625 64.59375 27.734375 64.59375 
Q 21.875 64.59375 17.53125 59.8125 
Q 13.1875 55.03125 13.1875 47.40625 
Q 13.1875 40.578125 17.3125 36.296875 
Q 21.4375 32.03125 27.484375 32.03125 
Q 33.59375 32.03125 37.515625 36.296875 
Q 41.453125 40.578125 41.453125 48.140625 
" id="ArialMT-39"/>
      <path d="M 5.8125 54.390625 
Q 5.8125 62.0625 9.671875 67.421875 
Q 13.53125 72.796875 20.84375 72.796875 
Q 27.59375 72.796875 32 67.984375 
Q 36.421875 63.1875 36.421875 53.859375 
Q 36.421875 44.78125 31.953125 39.875 
Q 27.484375 34.96875 20.953125 34.96875 
Q 14.453125 34.96875 10.125 39.796875 
Q 5.8125 44.625 5.8125 54.390625 
M 21.09375 66.75 
Q 17.828125 66.75 15.65625 63.90625 
Q 13.484375 61.078125 13.484375 53.515625 
Q 13.484375 46.625 15.671875 43.8125 
Q 17.875 41.015625 21.09375 41.015625 
Q 24.421875 41.015625 26.59375 43.84375 
Q 28.765625 46.6875 28.765625 54.203125 
Q 28.765625 61.140625 26.5625 63.9375 
Q 24.359375 66.75 21.09375 66.75 
M 21.140625 -2.640625 
L 60.296875 72.796875 
L 67.4375 72.796875 
L 28.421875 -2.640625 
z
M 52.09375 16.796875 
Q 52.09375 24.515625 55.953125 29.859375 
Q 59.8125 35.203125 67.1875 35.203125 
Q 73.921875 35.203125 78.34375 30.390625 
Q 82.765625 25.59375 82.765625 16.265625 
Q 82.765625 7.171875 78.296875 2.265625 
Q 73.828125 -2.640625 67.234375 -2.640625 
Q 60.75 -2.640625 56.421875 2.21875 
Q 52.09375 7.078125 52.09375 16.796875 
M 67.4375 29.15625 
Q 64.109375 29.15625 61.9375 26.3125 
Q 59.765625 23.484375 59.765625 15.921875 
Q 59.765625 9.078125 61.953125 6.25 
Q 64.15625 3.421875 67.390625 3.421875 
Q 70.75 3.421875 72.921875 6.25 
Q 75.09375 9.078125 75.09375 16.609375 
Q 75.09375 23.53125 72.890625 26.34375 
Q 70.703125 29.15625 67.4375 29.15625 
" id="ArialMT-25"/>
     </defs>
     <g transform="translate(158.21875 337.459062)scale(0.18 -0.18)">
      <use xlink:href="#ArialMT-39"/>
      <use x="55.615234" xlink:href="#ArialMT-30"/>
      <use x="111.230469" xlink:href="#ArialMT-25"/>
     </g>
    </g>
    <g id="patch_5">
     <path d="M 230.244063 337.459062 
L 266.244063 337.459062 
L 266.244063 324.859062 
L 230.244063 324.859062 
z
" style="fill:#999bea;"/>
    </g>
    <g id="text_23">
     <!-- 70% -->
     <defs>
      <path d="M 4.734375 62.203125 
L 4.734375 70.65625 
L 51.078125 70.65625 
L 51.078125 63.8125 
Q 44.234375 56.546875 37.515625 44.484375 
Q 30.8125 32.421875 27.15625 19.671875 
Q 24.515625 10.6875 23.78125 0 
L 14.75 0 
Q 14.890625 8.453125 18.0625 20.40625 
Q 21.234375 32.375 27.171875 43.484375 
Q 33.109375 54.59375 39.796875 62.203125 
z
" id="ArialMT-37"/>
     </defs>
     <g transform="translate(280.644063 337.459062)scale(0.18 -0.18)">
      <use xlink:href="#ArialMT-37"/>
      <use x="55.615234" xlink:href="#ArialMT-30"/>
      <use x="111.230469" xlink:href="#ArialMT-25"/>
     </g>
    </g>
    <g id="patch_6">
     <path d="M 352.669375 337.459062 
L 388.669375 337.459062 
L 388.669375 324.859062 
L 352.669375 324.859062 
z
" style="fill:#6669df;"/>
    </g>
    <g id="text_24">
     <!-- 50% -->
     <g transform="translate(403.069375 337.459062)scale(0.18 -0.18)">
      <use xlink:href="#ArialMT-35"/>
      <use x="55.615234" xlink:href="#ArialMT-30"/>
      <use x="111.230469" xlink:href="#ArialMT-25"/>
     </g>
    </g>
    <g id="patch_7">
     <path d="M 475.094687 337.459062 
L 511.094687 337.459062 
L 511.094687 324.859062 
L 475.094687 324.859062 
z
" style="fill:#2426a9;"/>
    </g>
    <g id="text_25">
     <!-- 30% -->
     <g transform="translate(525.494687 337.459062)scale(0.18 -0.18)">
      <use xlink:href="#ArialMT-33"/>
      <use x="55.615234" xlink:href="#ArialMT-30"/>
      <use x="111.230469" xlink:href="#ArialMT-25"/>
     </g>
    </g>
   </g>
   <g id="line2d_21">
    <path clip-path="url(#p093ba86b71)" d="M 41.719375 25.8 
L 627.619375 25.8 
" style="fill:none;stroke:#d2d2d2;stroke-linecap:square;stroke-width:0.5;"/>
   </g>
   <g id="patch_8">
    <path clip-path="url(#p093ba86b71)" d="z
" style="fill:#cccdf4;"/>
   </g>
   <g id="patch_9">
    <path clip-path="url(#p093ba86b71)" d="z
" style="fill:#cccdf4;"/>
   </g>
   <g id="patch_10">
    <path clip-path="url(#p093ba86b71)" d="z
" style="fill:#cccdf4;"/>
   </g>
   <g id="patch_11">
    <path clip-path="url(#p093ba86b71)" d="z
" style="fill:#cccdf4;"/>
   </g>
   <g id="patch_12">
    <path clip-path="url(#p093ba86b71)" d="z
" style="fill:#cccdf4;"/>
   </g>
   <g id="patch_13">
    <path clip-path="url(#p093ba86b71)" d="z
" style="fill:#cccdf4;"/>
   </g>
   <g id="patch_14">
    <path clip-path="url(#p093ba86b71)" d="z
" style="fill:#cccdf4;"/>
   </g>
   <g id="patch_15">
    <path clip-path="url(#p093ba86b71)" d="M 314.768462 267.4 
L 314.768462 267.4 
L 314.768462 55.194666 
L 314.768462 55.194666 
z
" style="fill:#cccdf4;"/>
   </g>
   <g id="patch_16">
    <path clip-path="url(#p093ba86b71)" d="M 354.142311 267.4 
L 354.142311 267.4 
L 354.142311 53.264221 
L 354.142311 53.264221 
z
" style="fill:#cccdf4;"/>
   </g>
   <g id="patch_17">
    <path clip-path="url(#p093ba86b71)" d="M 393.516161 267.4 
L 393.516161 267.4 
L 393.516161 101.184571 
L 393.516161 101.184571 
z
" style="fill:#cccdf4;"/>
   </g>
   <g id="patch_18">
    <path clip-path="url(#p093ba86b71)" d="M 432.034057 267.4 
L 432.034057 267.4 
L 432.034057 163.099905 
L 432.034057 163.099905 
z
" style="fill:#cccdf4;"/>
   </g>
   <g id="patch_19">
    <path clip-path="url(#p093ba86b71)" d="M 470.97993 267.4 
L 470.97993 267.4 
L 470.97993 207.676722 
L 470.97993 207.676722 
z
" style="fill:#cccdf4;"/>
   </g>
   <g id="patch_20">
    <path clip-path="url(#p093ba86b71)" d="M 510.35378 267.4 
L 510.35378 267.4 
L 510.35378 245.998577 
L 510.35378 245.998577 
z
" style="fill:#cccdf4;"/>
   </g>
   <g id="patch_21">
    <path clip-path="url(#p093ba86b71)" d="M 549.727629 267.4 
L 549.727629 267.4 
L 549.727629 264.144752 
L 549.727629 264.144752 
z
" style="fill:#cccdf4;"/>
   </g>
   <g id="patch_22">
    <path clip-path="url(#p093ba86b71)" d="M 588.673502 267.4 
L 588.673502 267.4 
L 588.673502 267.4 
L 588.673502 267.4 
z
" style="fill:#cccdf4;"/>
   </g>
   <g id="patch_23">
    <path clip-path="url(#p093ba86b71)" d="M 627.619375 267.4 
L 627.619375 267.4 
L 627.619375 267.4 
L 627.619375 267.4 
z
" style="fill:#cccdf4;"/>
   </g>
   <g id="patch_24">
    <path clip-path="url(#p093ba86b71)" d="z
" style="fill:#cccdf4;"/>
   </g>
   <g id="patch_25">
    <path clip-path="url(#p093ba86b71)" d="z
" style="fill:#cccdf4;"/>
   </g>
   <g id="patch_26">
    <path clip-path="url(#p093ba86b71)" d="z
" style="fill:#cccdf4;"/>
   </g>
   <g id="patch_27">
    <path clip-path="url(#p093ba86b71)" d="z
" style="fill:#cccdf4;"/>
   </g>
   <g id="patch_28">
    <path clip-path="url(#p093ba86b71)" d="z
" style="fill:#cccdf4;"/>
   </g>
   <g id="patch_29">
    <path clip-path="url(#p093ba86b71)" d="z
" style="fill:#cccdf4;"/>
   </g>
   <g id="patch_30">
    <path clip-path="url(#p093ba86b71)" d="z
" style="fill:#cccdf4;"/>
   </g>
   <g id="patch_31">
    <path clip-path="url(#p093ba86b71)" d="M 314.768462 267.4 
L 314.768462 267.4 
L 314.768462 267.4 
L 314.768462 267.4 
z
" style="fill:#cccdf4;"/>
   </g>
   <g id="patch_32">
    <path clip-path="url(#p093ba86b71)" d="M 354.142311 267.4 
L 354.142311 267.4 
L 354.142311 267.4 
L 354.142311 267.4 
z
" style="fill:#cccdf4;"/>
   </g>
   <g id="patch_33">
    <path clip-path="url(#p093ba86b71)" d="M 393.516161 267.4 
L 393.516161 267.4 
L 393.516161 267.4 
L 393.516161 267.4 
z
" style="fill:#cccdf4;"/>
   </g>
   <g id="patch_34">
    <path clip-path="url(#p093ba86b71)" d="M 432.034057 267.4 
L 432.034057 267.4 
L 432.034057 267.4 
L 432.034057 267.4 
z
" style="fill:#cccdf4;"/>
   </g>
   <g id="patch_35">
    <path clip-path="url(#p093ba86b71)" d="M 470.97993 267.4 
L 470.97993 267.4 
L 470.97993 267.4 
L 470.97993 267.4 
z
" style="fill:#cccdf4;"/>
   </g>
   <g id="patch_36">
    <path clip-path="url(#p093ba86b71)" d="M 510.35378 267.4 
L 510.35378 267.4 
L 510.35378 267.4 
L 510.35378 267.4 
z
" style="fill:#cccdf4;"/>
   </g>
   <g id="patch_37">
    <path clip-path="url(#p093ba86b71)" d="M 549.727629 267.4 
L 549.727629 267.4 
L 549.727629 267.4 
L 549.727629 267.4 
z
" style="fill:#cccdf4;"/>
   </g>
   <g id="patch_38">
    <path clip-path="url(#p093ba86b71)" d="M 588.673502 271.405065 
L 588.673502 271.405065 
L 588.673502 267.4 
L 588.673502 267.4 
z
" style="fill:#cccdf4;"/>
   </g>
   <g id="patch_39">
    <path clip-path="url(#p093ba86b71)" d="M 627.619375 271.029077 
L 627.619375 271.029077 
L 627.619375 267.4 
L 627.619375 267.4 
z
" style="fill:#cccdf4;"/>
   </g>
   <g id="patch_40">
    <path clip-path="url(#p093ba86b71)" d="z
" style="fill:#999bea;"/>
   </g>
   <g id="patch_41">
    <path clip-path="url(#p093ba86b71)" d="z
" style="fill:#999bea;"/>
   </g>
   <g id="patch_42">
    <path clip-path="url(#p093ba86b71)" d="z
" style="fill:#999bea;"/>
   </g>
   <g id="patch_43">
    <path clip-path="url(#p093ba86b71)" d="z
" style="fill:#999bea;"/>
   </g>
   <g id="patch_44">
    <path clip-path="url(#p093ba86b71)" d="z
" style="fill:#999bea;"/>
   </g>
   <g id="patch_45">
    <path clip-path="url(#p093ba86b71)" d="z
" style="fill:#999bea;"/>
   </g>
   <g id="patch_46">
    <path clip-path="url(#p093ba86b71)" d="z
" style="fill:#999bea;"/>
   </g>
   <g id="patch_47">
    <path clip-path="url(#p093ba86b71)" d="M 314.768462 55.194666 
L 314.768462 55.194666 
L 314.768462 -157.010667 
L 314.768462 -157.010667 
z
" style="fill:#999bea;"/>
   </g>
   <g id="patch_48">
    <path clip-path="url(#p093ba86b71)" d="M 354.142311 53.264221 
L 354.142311 53.264221 
L 354.142311 -163.770759 
L 354.142311 -163.770759 
z
" style="fill:#999bea;"/>
   </g>
   <g id="patch_49">
    <path clip-path="url(#p093ba86b71)" d="M 393.516161 101.184571 
L 393.516161 101.184571 
L 393.516161 -69.923258 
L 393.516161 -69.923258 
z
" style="fill:#999bea;"/>
   </g>
   <g id="patch_50">
    <path clip-path="url(#p093ba86b71)" d="M 432.034057 163.099905 
L 432.034057 163.099905 
L 432.034057 51.914211 
L 432.034057 51.914211 
z
" style="fill:#999bea;"/>
   </g>
   <g id="patch_51">
    <path clip-path="url(#p093ba86b71)" d="M 470.97993 207.676722 
L 470.97993 207.676722 
L 470.97993 139.074644 
L 470.97993 139.074644 
z
" style="fill:#999bea;"/>
   </g>
   <g id="patch_52">
    <path clip-path="url(#p093ba86b71)" d="M 510.35378 245.998577 
L 510.35378 245.998577 
L 510.35378 213.725154 
L 510.35378 213.725154 
z
" style="fill:#999bea;"/>
   </g>
   <g id="patch_53">
    <path clip-path="url(#p093ba86b71)" d="M 549.727629 264.144752 
L 549.727629 264.144752 
L 549.727629 250.017505 
L 549.727629 250.017505 
z
" style="fill:#999bea;"/>
   </g>
   <g id="patch_54">
    <path clip-path="url(#p093ba86b71)" d="M 588.673502 267.4 
L 588.673502 267.4 
L 588.673502 260.533065 
L 588.673502 260.533065 
z
" style="fill:#999bea;"/>
   </g>
   <g id="patch_55">
    <path clip-path="url(#p093ba86b71)" d="M 627.619375 267.4 
L 627.619375 267.4 
L 627.619375 260.157077 
L 627.619375 260.157077 
z
" style="fill:#999bea;"/>
   </g>
   <g id="patch_56">
    <path clip-path="url(#p093ba86b71)" d="z
" style="fill:#999bea;"/>
   </g>
   <g id="patch_57">
    <path clip-path="url(#p093ba86b71)" d="z
" style="fill:#999bea;"/>
   </g>
   <g id="patch_58">
    <path clip-path="url(#p093ba86b71)" d="z
" style="fill:#999bea;"/>
   </g>
   <g id="patch_59">
    <path clip-path="url(#p093ba86b71)" d="z
" style="fill:#999bea;"/>
   </g>
   <g id="patch_60">
    <path clip-path="url(#p093ba86b71)" d="z
" style="fill:#999bea;"/>
   </g>
   <g id="patch_61">
    <path clip-path="url(#p093ba86b71)" d="z
" style="fill:#999bea;"/>
   </g>
   <g id="patch_62">
    <path clip-path="url(#p093ba86b71)" d="z
" style="fill:#999bea;"/>
   </g>
   <g id="patch_63">
    <path clip-path="url(#p093ba86b71)" d="M 314.768462 267.4 
L 314.768462 267.4 
L 314.768462 267.4 
L 314.768462 267.4 
z
" style="fill:#999bea;"/>
   </g>
   <g id="patch_64">
    <path clip-path="url(#p093ba86b71)" d="M 354.142311 267.4 
L 354.142311 267.4 
L 354.142311 267.4 
L 354.142311 267.4 
z
" style="fill:#999bea;"/>
   </g>
   <g id="patch_65">
    <path clip-path="url(#p093ba86b71)" d="M 393.516161 267.4 
L 393.516161 267.4 
L 393.516161 267.4 
L 393.516161 267.4 
z
" style="fill:#999bea;"/>
   </g>
   <g id="patch_66">
    <path clip-path="url(#p093ba86b71)" d="M 432.034057 267.4 
L 432.034057 267.4 
L 432.034057 267.4 
L 432.034057 267.4 
z
" style="fill:#999bea;"/>
   </g>
   <g id="patch_67">
    <path clip-path="url(#p093ba86b71)" d="M 470.97993 267.4 
L 470.97993 267.4 
L 470.97993 267.4 
L 470.97993 267.4 
z
" style="fill:#999bea;"/>
   </g>
   <g id="patch_68">
    <path clip-path="url(#p093ba86b71)" d="M 510.35378 267.4 
L 510.35378 267.4 
L 510.35378 267.4 
L 510.35378 267.4 
z
" style="fill:#999bea;"/>
   </g>
   <g id="patch_69">
    <path clip-path="url(#p093ba86b71)" d="M 549.727629 267.4 
L 549.727629 267.4 
L 549.727629 267.4 
L 549.727629 267.4 
z
" style="fill:#999bea;"/>
   </g>
   <g id="patch_70">
    <path clip-path="url(#p093ba86b71)" d="M 588.673502 271.405065 
L 588.673502 271.405065 
L 588.673502 271.405065 
L 588.673502 271.405065 
z
" style="fill:#999bea;"/>
   </g>
   <g id="patch_71">
    <path clip-path="url(#p093ba86b71)" d="M 627.619375 271.029077 
L 627.619375 271.029077 
L 627.619375 271.029077 
L 627.619375 271.029077 
z
" style="fill:#999bea;"/>
   </g>
   <g id="patch_72">
    <path clip-path="url(#p093ba86b71)" d="z
" style="fill:#6669df;"/>
   </g>
   <g id="patch_73">
    <path clip-path="url(#p093ba86b71)" d="z
" style="fill:#6669df;"/>
   </g>
   <g id="patch_74">
    <path clip-path="url(#p093ba86b71)" d="z
" style="fill:#6669df;"/>
   </g>
   <g id="patch_75">
    <path clip-path="url(#p093ba86b71)" d="z
" style="fill:#6669df;"/>
   </g>
   <g id="patch_76">
    <path clip-path="url(#p093ba86b71)" d="z
" style="fill:#6669df;"/>
   </g>
   <g id="patch_77">
    <path clip-path="url(#p093ba86b71)" d="z
" style="fill:#6669df;"/>
   </g>
   <g id="patch_78">
    <path clip-path="url(#p093ba86b71)" d="z
" style="fill:#6669df;"/>
   </g>
   <g id="patch_79">
    <path clip-path="url(#p093ba86b71)" d="M 314.768462 -157.010667 
L 314.768462 -157.010667 
L 314.768462 -369.216001 
L 314.768462 -369.216001 
z
" style="fill:#6669df;"/>
   </g>
   <g id="patch_80">
    <path clip-path="url(#p093ba86b71)" d="M 354.142311 -163.770759 
L 354.142311 -163.770759 
L 354.142311 -382.545258 
L 354.142311 -382.545258 
z
" style="fill:#6669df;"/>
   </g>
   <g id="patch_81">
    <path clip-path="url(#p093ba86b71)" d="M 393.516161 -69.923258 
L 393.516161 -69.923258 
L 393.516161 -243.966528 
L 393.516161 -243.966528 
z
" style="fill:#6669df;"/>
   </g>
   <g id="patch_82">
    <path clip-path="url(#p093ba86b71)" d="M 432.034057 51.914211 
L 432.034057 51.914211 
L 432.034057 -63.402844 
L 432.034057 -63.402844 
z
" style="fill:#6669df;"/>
   </g>
   <g id="patch_83">
    <path clip-path="url(#p093ba86b71)" d="M 470.97993 139.074644 
L 470.97993 139.074644 
L 470.97993 65.145287 
L 470.97993 65.145287 
z
" style="fill:#6669df;"/>
   </g>
   <g id="patch_84">
    <path clip-path="url(#p093ba86b71)" d="M 510.35378 213.725154 
L 510.35378 213.725154 
L 510.35378 174.928531 
L 510.35378 174.928531 
z
" style="fill:#6669df;"/>
   </g>
   <g id="patch_85">
    <path clip-path="url(#p093ba86b71)" d="M 549.727629 250.017505 
L 549.727629 250.017505 
L 549.727629 229.367057 
L 549.727629 229.367057 
z
" style="fill:#6669df;"/>
   </g>
   <g id="patch_86">
    <path clip-path="url(#p093ba86b71)" d="M 588.673502 260.533065 
L 588.673502 260.533065 
L 588.673502 247.142931 
L 588.673502 247.142931 
z
" style="fill:#6669df;"/>
   </g>
   <g id="patch_87">
    <path clip-path="url(#p093ba86b71)" d="M 627.619375 260.157077 
L 627.619375 260.157077 
L 627.619375 246.390955 
L 627.619375 246.390955 
z
" style="fill:#6669df;"/>
   </g>
   <g id="patch_88">
    <path clip-path="url(#p093ba86b71)" d="z
" style="fill:#6669df;"/>
   </g>
   <g id="patch_89">
    <path clip-path="url(#p093ba86b71)" d="z
" style="fill:#6669df;"/>
   </g>
   <g id="patch_90">
    <path clip-path="url(#p093ba86b71)" d="z
" style="fill:#6669df;"/>
   </g>
   <g id="patch_91">
    <path clip-path="url(#p093ba86b71)" d="z
" style="fill:#6669df;"/>
   </g>
   <g id="patch_92">
    <path clip-path="url(#p093ba86b71)" d="z
" style="fill:#6669df;"/>
   </g>
   <g id="patch_93">
    <path clip-path="url(#p093ba86b71)" d="z
" style="fill:#6669df;"/>
   </g>
   <g id="patch_94">
    <path clip-path="url(#p093ba86b71)" d="z
" style="fill:#6669df;"/>
   </g>
   <g id="patch_95">
    <path clip-path="url(#p093ba86b71)" d="M 314.768462 267.4 
L 314.768462 267.4 
L 314.768462 267.4 
L 314.768462 267.4 
z
" style="fill:#6669df;"/>
   </g>
   <g id="patch_96">
    <path clip-path="url(#p093ba86b71)" d="M 354.142311 267.4 
L 354.142311 267.4 
L 354.142311 267.4 
L 354.142311 267.4 
z
" style="fill:#6669df;"/>
   </g>
   <g id="patch_97">
    <path clip-path="url(#p093ba86b71)" d="M 393.516161 267.4 
L 393.516161 267.4 
L 393.516161 267.4 
L 393.516161 267.4 
z
" style="fill:#6669df;"/>
   </g>
   <g id="patch_98">
    <path clip-path="url(#p093ba86b71)" d="M 432.034057 267.4 
L 432.034057 267.4 
L 432.034057 267.4 
L 432.034057 267.4 
z
" style="fill:#6669df;"/>
   </g>
   <g id="patch_99">
    <path clip-path="url(#p093ba86b71)" d="M 470.97993 267.4 
L 470.97993 267.4 
L 470.97993 267.4 
L 470.97993 267.4 
z
" style="fill:#6669df;"/>
   </g>
   <g id="patch_100">
    <path clip-path="url(#p093ba86b71)" d="M 510.35378 267.4 
L 510.35378 267.4 
L 510.35378 267.4 
L 510.35378 267.4 
z
" style="fill:#6669df;"/>
   </g>
   <g id="patch_101">
    <path clip-path="url(#p093ba86b71)" d="M 549.727629 267.4 
L 549.727629 267.4 
L 549.727629 267.4 
L 549.727629 267.4 
z
" style="fill:#6669df;"/>
   </g>
   <g id="patch_102">
    <path clip-path="url(#p093ba86b71)" d="M 588.673502 271.405065 
L 588.673502 271.405065 
L 588.673502 271.405065 
L 588.673502 271.405065 
z
" style="fill:#6669df;"/>
   </g>
   <g id="patch_103">
    <path clip-path="url(#p093ba86b71)" d="M 627.619375 271.029077 
L 627.619375 271.029077 
L 627.619375 271.029077 
L 627.619375 271.029077 
z
" style="fill:#6669df;"/>
   </g>
   <g id="patch_104">
    <path clip-path="url(#p093ba86b71)" d="z
" style="fill:#2426a9;"/>
   </g>
   <g id="patch_105">
    <path clip-path="url(#p093ba86b71)" d="z
" style="fill:#2426a9;"/>
   </g>
   <g id="patch_106">
    <path clip-path="url(#p093ba86b71)" d="z
" style="fill:#2426a9;"/>
   </g>
   <g id="patch_107">
    <path clip-path="url(#p093ba86b71)" d="z
" style="fill:#2426a9;"/>
   </g>
   <g id="patch_108">
    <path clip-path="url(#p093ba86b71)" d="z
" style="fill:#2426a9;"/>
   </g>
   <g id="patch_109">
    <path clip-path="url(#p093ba86b71)" d="z
" style="fill:#2426a9;"/>
   </g>
   <g id="patch_110">
    <path clip-path="url(#p093ba86b71)" d="z
" style="fill:#2426a9;"/>
   </g>
   <g id="patch_111">
    <path clip-path="url(#p093ba86b71)" d="M 314.768462 -369.216001 
L 314.768462 -369.216001 
L 314.768462 -581.421335 
L 314.768462 -581.421335 
z
" style="fill:#2426a9;"/>
   </g>
   <g id="patch_112">
    <path clip-path="url(#p093ba86b71)" d="M 354.142311 -382.545258 
L 354.142311 -382.545258 
L 354.142311 -602.721037 
L 354.142311 -602.721037 
z
" style="fill:#2426a9;"/>
   </g>
   <g id="patch_113">
    <path clip-path="url(#p093ba86b71)" d="M 393.516161 -243.966528 
L 393.516161 -243.966528 
L 393.516161 -420.374457 
L 393.516161 -420.374457 
z
" style="fill:#2426a9;"/>
   </g>
   <g id="patch_114">
    <path clip-path="url(#p093ba86b71)" d="M 432.034057 -63.402844 
L 432.034057 -63.402844 
L 432.034057 -182.047939 
L 432.034057 -182.047939 
z
" style="fill:#2426a9;"/>
   </g>
   <g id="patch_115">
    <path clip-path="url(#p093ba86b71)" d="M 470.97993 65.145287 
L 470.97993 65.145287 
L 470.97993 -13.075491 
L 470.97993 -13.075491 
z
" style="fill:#2426a9;"/>
   </g>
   <g id="patch_116">
    <path clip-path="url(#p093ba86b71)" d="M 510.35378 174.928531 
L 510.35378 174.928531 
L 510.35378 130.877108 
L 510.35378 130.877108 
z
" style="fill:#2426a9;"/>
   </g>
   <g id="patch_117">
    <path clip-path="url(#p093ba86b71)" d="M 549.727629 229.367057 
L 549.727629 229.367057 
L 549.727629 203.46181 
L 549.727629 203.46181 
z
" style="fill:#2426a9;"/>
   </g>
   <g id="patch_118">
    <path clip-path="url(#p093ba86b71)" d="M 588.673502 247.142931 
L 588.673502 247.142931 
L 588.673502 228.497996 
L 588.673502 228.497996 
z
" style="fill:#2426a9;"/>
   </g>
   <g id="patch_119">
    <path clip-path="url(#p093ba86b71)" d="M 627.619375 246.390955 
L 627.619375 246.390955 
L 627.619375 227.370032 
L 627.619375 227.370032 
z
" style="fill:#2426a9;"/>
   </g>
   <g id="patch_120">
    <path clip-path="url(#p093ba86b71)" d="z
" style="fill:#2426a9;"/>
   </g>
   <g id="patch_121">
    <path clip-path="url(#p093ba86b71)" d="z
" style="fill:#2426a9;"/>
   </g>
   <g id="patch_122">
    <path clip-path="url(#p093ba86b71)" d="z
" style="fill:#2426a9;"/>
   </g>
   <g id="patch_123">
    <path clip-path="url(#p093ba86b71)" d="z
" style="fill:#2426a9;"/>
   </g>
   <g id="patch_124">
    <path clip-path="url(#p093ba86b71)" d="z
" style="fill:#2426a9;"/>
   </g>
   <g id="patch_125">
    <path clip-path="url(#p093ba86b71)" d="z
" style="fill:#2426a9;"/>
   </g>
   <g id="patch_126">
    <path clip-path="url(#p093ba86b71)" d="z
" style="fill:#2426a9;"/>
   </g>
   <g id="patch_127">
    <path clip-path="url(#p093ba86b71)" d="M 314.768462 267.4 
L 314.768462 267.4 
L 314.768462 267.4 
L 314.768462 267.4 
z
" style="fill:#2426a9;"/>
   </g>
   <g id="patch_128">
    <path clip-path="url(#p093ba86b71)" d="M 354.142311 267.4 
L 354.142311 267.4 
L 354.142311 267.4 
L 354.142311 267.4 
z
" style="fill:#2426a9;"/>
   </g>
   <g id="patch_129">
    <path clip-path="url(#p093ba86b71)" d="M 393.516161 267.4 
L 393.516161 267.4 
L 393.516161 267.4 
L 393.516161 267.4 
z
" style="fill:#2426a9;"/>
   </g>
   <g id="patch_130">
    <path clip-path="url(#p093ba86b71)" d="M 432.034057 267.4 
L 432.034057 267.4 
L 432.034057 267.4 
L 432.034057 267.4 
z
" style="fill:#2426a9;"/>
   </g>
   <g id="patch_131">
    <path clip-path="url(#p093ba86b71)" d="M 470.97993 267.4 
L 470.97993 267.4 
L 470.97993 267.4 
L 470.97993 267.4 
z
" style="fill:#2426a9;"/>
   </g>
   <g id="patch_132">
    <path clip-path="url(#p093ba86b71)" d="M 510.35378 267.4 
L 510.35378 267.4 
L 510.35378 267.4 
L 510.35378 267.4 
z
" style="fill:#2426a9;"/>
   </g>
   <g id="patch_133">
    <path clip-path="url(#p093ba86b71)" d="M 549.727629 267.4 
L 549.727629 267.4 
L 549.727629 267.4 
L 549.727629 267.4 
z
" style="fill:#2426a9;"/>
   </g>
   <g id="patch_134">
    <path clip-path="url(#p093ba86b71)" d="M 588.673502 271.405065 
L 588.673502 271.405065 
L 588.673502 271.405065 
L 588.673502 271.405065 
z
" style="fill:#2426a9;"/>
   </g>
   <g id="patch_135">
    <path clip-path="url(#p093ba86b71)" d="M 627.619375 271.029077 
L 627.619375 271.029077 
L 627.619375 271.029077 
L 627.619375 271.029077 
z
" style="fill:#2426a9;"/>
   </g>
   <g id="PolyCollection_1">
    <path clip-path="url(#p093ba86b71)" d="M 314.768462 55.194666 
L 314.768462 55.194666 
L 354.142311 53.264221 
L 393.516161 101.184571 
L 432.034057 163.099905 
L 470.97993 207.676722 
L 510.35378 245.998577 
L 549.727629 264.144752 
L 588.673502 271.405065 
L 627.619375 271.029077 
L 627.619375 211.595477 
L 627.619375 211.595477 
L 588.673502 211.971465 
L 549.727629 204.711152 
L 510.35378 186.564977 
L 470.97993 159.139282 
L 432.034057 125.458625 
L 393.516161 74.439451 
L 354.142311 37.415261 
L 314.768462 55.194666 
z
" style="fill:#cccdf4;"/>
   </g>
   <g id="PolyCollection_2">
    <path clip-path="url(#p093ba86b71)" d="M 314.768462 55.194666 
L 314.768462 55.194666 
L 354.142311 50.365021 
L 393.516161 96.292171 
L 432.034057 156.214305 
L 470.97993 198.797922 
L 510.35378 235.126577 
L 549.727629 253.272752 
L 588.673502 260.533065 
L 627.619375 260.157077 
L 627.619375 222.467477 
L 627.619375 222.467477 
L 588.673502 222.843465 
L 549.727629 215.583152 
L 510.35378 197.436977 
L 470.97993 168.018082 
L 432.034057 132.344225 
L 393.516161 79.331851 
L 354.142311 40.314461 
L 314.768462 55.194666 
z
" style="fill:#999bea;"/>
   </g>
   <g id="PolyCollection_3">
    <path clip-path="url(#p093ba86b71)" d="M 314.768462 55.194666 
L 314.768462 55.194666 
L 354.142311 48.625501 
L 393.516161 93.356731 
L 432.034057 152.082945 
L 470.97993 193.470642 
L 510.35378 228.603377 
L 549.727629 246.749552 
L 588.673502 254.009865 
L 627.619375 253.633877 
L 627.619375 228.990677 
L 627.619375 228.990677 
L 588.673502 229.366665 
L 549.727629 222.106352 
L 510.35378 203.960177 
L 470.97993 173.345362 
L 432.034057 136.475585 
L 393.516161 82.267291 
L 354.142311 42.053981 
L 314.768462 55.194666 
z
" style="fill:#6669df;"/>
   </g>
   <g id="PolyCollection_4">
    <path clip-path="url(#p093ba86b71)" d="M 314.768462 55.194666 
L 314.768462 55.194666 
L 354.142311 47.224221 
L 393.516161 90.992071 
L 432.034057 148.754905 
L 470.97993 189.179222 
L 510.35378 223.348577 
L 549.727629 241.494752 
L 588.673502 248.755065 
L 627.619375 248.379077 
L 627.619375 234.245477 
L 627.619375 234.245477 
L 588.673502 234.621465 
L 549.727629 227.361152 
L 510.35378 209.214977 
L 470.97993 177.636782 
L 432.034057 139.803625 
L 393.516161 84.631951 
L 354.142311 43.455261 
L 314.768462 55.194666 
z
" style="fill:#2426a9;"/>
   </g>
   <g id="line2d_22">
    <path clip-path="url(#p093ba86b71)" d="M 41.719375 243.24 
L 81.093225 243.24 
L 119.611121 243.24 
L 158.556994 243.24 
L 197.930843 243.24 
L 237.304693 243.24 
L 275.822589 243.24 
L 314.768462 243.24 
L 354.142311 243.24 
L 393.516161 243.24 
L 432.034057 243.24 
L 470.97993 243.24 
L 510.35378 243.24 
L 549.727629 243.24 
L 588.673502 243.24 
L 627.619375 243.24 
" style="fill:none;stroke:#d62728;stroke-linecap:square;stroke-width:2;"/>
   </g>
   <g id="line2d_23">
    <path clip-path="url(#p093ba86b71)" d="M 41.719375 255.32 
L 81.093225 255.32 
L 119.611121 255.32 
L 158.556994 255.32 
L 197.930843 255.32 
L 237.304693 255.32 
L 275.822589 255.32 
L 314.768462 255.32 
L 354.142311 255.32 
L 393.516161 255.32 
L 432.034057 255.32 
L 470.97993 255.32 
L 510.35378 255.32 
L 549.727629 255.32 
L 588.673502 255.32 
L 627.619375 255.32 
" style="fill:none;stroke:#d62728;stroke-dasharray:12,8,12,8;stroke-dashoffset:0;stroke-width:1.25;"/>
   </g>
   <g id="line2d_24">
    <path clip-path="url(#p093ba86b71)" d="M 41.719375 231.16 
L 81.093225 231.16 
L 119.611121 231.16 
L 158.556994 231.16 
L 197.930843 231.16 
L 237.304693 231.16 
L 275.822589 231.16 
L 314.768462 231.16 
L 354.142311 231.16 
L 393.516161 231.16 
L 432.034057 231.16 
L 470.97993 231.16 
L 510.35378 231.16 
L 549.727629 231.16 
L 588.673502 231.16 
L 627.619375 231.16 
" style="fill:none;stroke:#d62728;stroke-dasharray:12,8,12,8;stroke-dashoffset:0;stroke-width:1.25;"/>
   </g>
   <g id="text_26">
    <!--        2% inflační cíl -->
    <defs>
     <path id="DejaVuSans-20"/>
     <path d="M 19.1875 8.296875 
L 53.609375 8.296875 
L 53.609375 0 
L 7.328125 0 
L 7.328125 8.296875 
Q 12.9375 14.109375 22.625 23.890625 
Q 32.328125 33.6875 34.8125 36.53125 
Q 39.546875 41.84375 41.421875 45.53125 
Q 43.3125 49.21875 43.3125 52.78125 
Q 43.3125 58.59375 39.234375 62.25 
Q 35.15625 65.921875 28.609375 65.921875 
Q 23.96875 65.921875 18.8125 64.3125 
Q 13.671875 62.703125 7.8125 59.421875 
L 7.8125 69.390625 
Q 13.765625 71.78125 18.9375 73 
Q 24.125 74.21875 28.421875 74.21875 
Q 39.75 74.21875 46.484375 68.546875 
Q 53.21875 62.890625 53.21875 53.421875 
Q 53.21875 48.921875 51.53125 44.890625 
Q 49.859375 40.875 45.40625 35.40625 
Q 44.1875 33.984375 37.640625 27.21875 
Q 31.109375 20.453125 19.1875 8.296875 
" id="DejaVuSans-32"/>
     <path d="M 72.703125 32.078125 
Q 68.453125 32.078125 66.03125 28.46875 
Q 63.625 24.859375 63.625 18.40625 
Q 63.625 12.0625 66.03125 8.421875 
Q 68.453125 4.78125 72.703125 4.78125 
Q 76.859375 4.78125 79.265625 8.421875 
Q 81.6875 12.0625 81.6875 18.40625 
Q 81.6875 24.8125 79.265625 28.4375 
Q 76.859375 32.078125 72.703125 32.078125 
M 72.703125 38.28125 
Q 80.421875 38.28125 84.953125 32.90625 
Q 89.5 27.546875 89.5 18.40625 
Q 89.5 9.28125 84.9375 3.921875 
Q 80.375 -1.421875 72.703125 -1.421875 
Q 64.890625 -1.421875 60.34375 3.921875 
Q 55.8125 9.28125 55.8125 18.40625 
Q 55.8125 27.59375 60.375 32.9375 
Q 64.9375 38.28125 72.703125 38.28125 
M 22.3125 68.015625 
Q 18.109375 68.015625 15.6875 64.375 
Q 13.28125 60.75 13.28125 54.390625 
Q 13.28125 47.953125 15.671875 44.328125 
Q 18.0625 40.71875 22.3125 40.71875 
Q 26.5625 40.71875 28.96875 44.328125 
Q 31.390625 47.953125 31.390625 54.390625 
Q 31.390625 60.6875 28.953125 64.34375 
Q 26.515625 68.015625 22.3125 68.015625 
M 66.40625 74.21875 
L 74.21875 74.21875 
L 28.609375 -1.421875 
L 20.796875 -1.421875 
z
M 22.3125 74.21875 
Q 30.03125 74.21875 34.609375 68.875 
Q 39.203125 63.53125 39.203125 54.390625 
Q 39.203125 45.171875 34.640625 39.84375 
Q 30.078125 34.515625 22.3125 34.515625 
Q 14.546875 34.515625 10.03125 39.859375 
Q 5.515625 45.21875 5.515625 54.390625 
Q 5.515625 63.484375 10.046875 68.84375 
Q 14.59375 74.21875 22.3125 74.21875 
" id="DejaVuSans-25"/>
     <path d="M 9.421875 54.6875 
L 18.40625 54.6875 
L 18.40625 0 
L 9.421875 0 
z
M 9.421875 75.984375 
L 18.40625 75.984375 
L 18.40625 64.59375 
L 9.421875 64.59375 
z
" id="DejaVuSans-69"/>
     <path d="M 54.890625 33.015625 
L 54.890625 0 
L 45.90625 0 
L 45.90625 32.71875 
Q 45.90625 40.484375 42.875 44.328125 
Q 39.84375 48.1875 33.796875 48.1875 
Q 26.515625 48.1875 22.3125 43.546875 
Q 18.109375 38.921875 18.109375 30.90625 
L 18.109375 0 
L 9.078125 0 
L 9.078125 54.6875 
L 18.109375 54.6875 
L 18.109375 46.1875 
Q 21.34375 51.125 25.703125 53.5625 
Q 30.078125 56 35.796875 56 
Q 45.21875 56 50.046875 50.171875 
Q 54.890625 44.34375 54.890625 33.015625 
" id="DejaVuSans-6e"/>
     <path d="M 37.109375 75.984375 
L 37.109375 68.5 
L 28.515625 68.5 
Q 23.6875 68.5 21.796875 66.546875 
Q 19.921875 64.59375 19.921875 59.515625 
L 19.921875 54.6875 
L 34.71875 54.6875 
L 34.71875 47.703125 
L 19.921875 47.703125 
L 19.921875 0 
L 10.890625 0 
L 10.890625 47.703125 
L 2.296875 47.703125 
L 2.296875 54.6875 
L 10.890625 54.6875 
L 10.890625 58.5 
Q 10.890625 67.625 15.140625 71.796875 
Q 19.390625 75.984375 28.609375 75.984375 
z
" id="DejaVuSans-66"/>
     <path d="M 9.421875 75.984375 
L 18.40625 75.984375 
L 18.40625 0 
L 9.421875 0 
z
" id="DejaVuSans-6c"/>
     <path d="M 34.28125 27.484375 
Q 23.390625 27.484375 19.1875 25 
Q 14.984375 22.515625 14.984375 16.5 
Q 14.984375 11.71875 18.140625 8.90625 
Q 21.296875 6.109375 26.703125 6.109375 
Q 34.1875 6.109375 38.703125 11.40625 
Q 43.21875 16.703125 43.21875 25.484375 
L 43.21875 27.484375 
z
M 52.203125 31.203125 
L 52.203125 0 
L 43.21875 0 
L 43.21875 8.296875 
Q 40.140625 3.328125 35.546875 0.953125 
Q 30.953125 -1.421875 24.3125 -1.421875 
Q 15.921875 -1.421875 10.953125 3.296875 
Q 6 8.015625 6 15.921875 
Q 6 25.140625 12.171875 29.828125 
Q 18.359375 34.515625 30.609375 34.515625 
L 43.21875 34.515625 
L 43.21875 35.40625 
Q 43.21875 41.609375 39.140625 45 
Q 35.0625 48.390625 27.6875 48.390625 
Q 23 48.390625 18.546875 47.265625 
Q 14.109375 46.140625 10.015625 43.890625 
L 10.015625 52.203125 
Q 14.9375 54.109375 19.578125 55.046875 
Q 24.21875 56 28.609375 56 
Q 40.484375 56 46.34375 49.84375 
Q 52.203125 43.703125 52.203125 31.203125 
" id="DejaVuSans-61"/>
     <path d="M 48.78125 52.59375 
L 48.78125 44.1875 
Q 44.96875 46.296875 41.140625 47.34375 
Q 37.3125 48.390625 33.40625 48.390625 
Q 24.65625 48.390625 19.8125 42.84375 
Q 14.984375 37.3125 14.984375 27.296875 
Q 14.984375 17.28125 19.8125 11.734375 
Q 24.65625 6.203125 33.40625 6.203125 
Q 37.3125 6.203125 41.140625 7.25 
Q 44.96875 8.296875 48.78125 10.40625 
L 48.78125 2.09375 
Q 45.015625 0.34375 40.984375 -0.53125 
Q 36.96875 -1.421875 32.421875 -1.421875 
Q 20.0625 -1.421875 12.78125 6.34375 
Q 5.515625 14.109375 5.515625 27.296875 
Q 5.515625 40.671875 12.859375 48.328125 
Q 20.21875 56 33.015625 56 
Q 37.15625 56 41.109375 55.140625 
Q 45.0625 54.296875 48.78125 52.59375 
M 28.140625 61.625 
L 16.171875 79.984375 
L 22.96875 79.984375 
L 31.75 68.015625 
L 40.546875 79.984375 
L 47.328125 79.984375 
L 35.359375 61.625 
z
" id="DejaVuSans-10d"/>
     <path d="M 20.65625 79.984375 
L 30.375 79.984375 
L 14.46875 61.625 
L 6.984375 61.625 
z
M 9.421875 54.6875 
L 18.40625 54.6875 
L 18.40625 0 
L 9.421875 0 
z
M 13.921875 56 
z
" id="DejaVuSans-ed"/>
     <path d="M 48.78125 52.59375 
L 48.78125 44.1875 
Q 44.96875 46.296875 41.140625 47.34375 
Q 37.3125 48.390625 33.40625 48.390625 
Q 24.65625 48.390625 19.8125 42.84375 
Q 14.984375 37.3125 14.984375 27.296875 
Q 14.984375 17.28125 19.8125 11.734375 
Q 24.65625 6.203125 33.40625 6.203125 
Q 37.3125 6.203125 41.140625 7.25 
Q 44.96875 8.296875 48.78125 10.40625 
L 48.78125 2.09375 
Q 45.015625 0.34375 40.984375 -0.53125 
Q 36.96875 -1.421875 32.421875 -1.421875 
Q 20.0625 -1.421875 12.78125 6.34375 
Q 5.515625 14.109375 5.515625 27.296875 
Q 5.515625 40.671875 12.859375 48.328125 
Q 20.21875 56 33.015625 56 
Q 37.15625 56 41.109375 55.140625 
Q 45.0625 54.296875 48.78125 52.59375 
" id="DejaVuSans-63"/>
    </defs>
    <g style="fill:#d62728;" transform="translate(234.330663 228.744)scale(0.14 -0.14)">
     <use xlink:href="#DejaVuSans-20"/>
     <use x="31.787109" xlink:href="#DejaVuSans-20"/>
     <use x="63.574219" xlink:href="#DejaVuSans-20"/>
     <use x="95.361328" xlink:href="#DejaVuSans-20"/>
     <use x="127.148438" xlink:href="#DejaVuSans-20"/>
     <use x="158.935547" xlink:href="#DejaVuSans-20"/>
     <use x="190.722656" xlink:href="#DejaVuSans-20"/>
     <use x="222.509766" xlink:href="#DejaVuSans-32"/>
     <use x="286.132812" xlink:href="#DejaVuSans-25"/>
     <use x="381.152344" xlink:href="#DejaVuSans-20"/>
     <use x="412.939453" xlink:href="#DejaVuSans-69"/>
     <use x="440.722656" xlink:href="#DejaVuSans-6e"/>
     <use x="504.101562" xlink:href="#DejaVuSans-66"/>
     <use x="539.306641" xlink:href="#DejaVuSans-6c"/>
     <use x="567.089844" xlink:href="#DejaVuSans-61"/>
     <use x="628.369141" xlink:href="#DejaVuSans-10d"/>
     <use x="683.349609" xlink:href="#DejaVuSans-6e"/>
     <use x="746.728516" xlink:href="#DejaVuSans-ed"/>
     <use x="774.511719" xlink:href="#DejaVuSans-20"/>
     <use x="806.298828" xlink:href="#DejaVuSans-63"/>
     <use x="861.279297" xlink:href="#DejaVuSans-ed"/>
     <use x="889.0625" xlink:href="#DejaVuSans-6c"/>
    </g>
   </g>
   <g id="line2d_25">
    <path clip-path="url(#p093ba86b71)" d="M 41.719375 267.4 
L 81.093225 267.4 
L 119.611121 267.4 
L 158.556994 267.4 
L 197.930843 267.4 
L 237.304693 267.4 
L 275.822589 267.4 
L 314.768462 267.4 
L 354.142311 267.4 
L 393.516161 267.4 
L 432.034057 267.4 
L 470.97993 267.4 
L 510.35378 267.4 
L 549.727629 267.4 
L 588.673502 267.4 
L 627.619375 267.4 
" style="fill:none;stroke:#000000;stroke-linecap:square;"/>
   </g>
   <g id="line2d_26">
    <path clip-path="url(#p093ba86b71)" d="M 530.040704 282.5 
L 530.040704 10.7 
" style="fill:none;stroke:#323232;stroke-linecap:square;stroke-width:1.5;"/>
   </g>
   <g id="line2d_27">
    <path clip-path="url(#p093ba86b71)" d="M 608.360427 282.5 
L 608.360427 10.7 
" style="fill:none;stroke:#323232;stroke-linecap:square;stroke-width:1.5;"/>
   </g>
   <g id="text_27">
    <!-- Horizont -->
    <defs>
     <path d="M 9.8125 72.90625 
L 19.671875 72.90625 
L 19.671875 43.015625 
L 55.515625 43.015625 
L 55.515625 72.90625 
L 65.375 72.90625 
L 65.375 0 
L 55.515625 0 
L 55.515625 34.71875 
L 19.671875 34.71875 
L 19.671875 0 
L 9.8125 0 
z
" id="DejaVuSans-48"/>
     <path d="M 30.609375 48.390625 
Q 23.390625 48.390625 19.1875 42.75 
Q 14.984375 37.109375 14.984375 27.296875 
Q 14.984375 17.484375 19.15625 11.84375 
Q 23.34375 6.203125 30.609375 6.203125 
Q 37.796875 6.203125 41.984375 11.859375 
Q 46.1875 17.53125 46.1875 27.296875 
Q 46.1875 37.015625 41.984375 42.703125 
Q 37.796875 48.390625 30.609375 48.390625 
M 30.609375 56 
Q 42.328125 56 49.015625 48.375 
Q 55.71875 40.765625 55.71875 27.296875 
Q 55.71875 13.875 49.015625 6.21875 
Q 42.328125 -1.421875 30.609375 -1.421875 
Q 18.84375 -1.421875 12.171875 6.21875 
Q 5.515625 13.875 5.515625 27.296875 
Q 5.515625 40.765625 12.171875 48.375 
Q 18.84375 56 30.609375 56 
" id="DejaVuSans-6f"/>
     <path d="M 41.109375 46.296875 
Q 39.59375 47.171875 37.8125 47.578125 
Q 36.03125 48 33.890625 48 
Q 26.265625 48 22.1875 43.046875 
Q 18.109375 38.09375 18.109375 28.8125 
L 18.109375 0 
L 9.078125 0 
L 9.078125 54.6875 
L 18.109375 54.6875 
L 18.109375 46.1875 
Q 20.953125 51.171875 25.484375 53.578125 
Q 30.03125 56 36.53125 56 
Q 37.453125 56 38.578125 55.875 
Q 39.703125 55.765625 41.0625 55.515625 
z
" id="DejaVuSans-72"/>
     <path d="M 5.515625 54.6875 
L 48.1875 54.6875 
L 48.1875 46.484375 
L 14.40625 7.171875 
L 48.1875 7.171875 
L 48.1875 0 
L 4.296875 0 
L 4.296875 8.203125 
L 38.09375 47.515625 
L 5.515625 47.515625 
z
" id="DejaVuSans-7a"/>
     <path d="M 18.3125 70.21875 
L 18.3125 54.6875 
L 36.8125 54.6875 
L 36.8125 47.703125 
L 18.3125 47.703125 
L 18.3125 18.015625 
Q 18.3125 11.328125 20.140625 9.421875 
Q 21.96875 7.515625 27.59375 7.515625 
L 36.8125 7.515625 
L 36.8125 0 
L 27.59375 0 
Q 17.1875 0 13.234375 3.875 
Q 9.28125 7.765625 9.28125 18.015625 
L 9.28125 47.703125 
L 2.6875 47.703125 
L 2.6875 54.6875 
L 9.28125 54.6875 
L 9.28125 70.21875 
z
" id="DejaVuSans-74"/>
    </defs>
    <g style="fill:#323232;" transform="translate(539.907366 109.206125)scale(0.14 -0.14)">
     <use xlink:href="#DejaVuSans-48"/>
     <use x="75.195312" xlink:href="#DejaVuSans-6f"/>
     <use x="136.376953" xlink:href="#DejaVuSans-72"/>
     <use x="177.490234" xlink:href="#DejaVuSans-69"/>
     <use x="205.273438" xlink:href="#DejaVuSans-7a"/>
     <use x="257.763672" xlink:href="#DejaVuSans-6f"/>
     <use x="318.945312" xlink:href="#DejaVuSans-6e"/>
     <use x="382.324219" xlink:href="#DejaVuSans-74"/>
    </g>
    <!-- měnové -->
    <defs>
     <path d="M 52 44.1875 
Q 55.375 50.25 60.0625 53.125 
Q 64.75 56 71.09375 56 
Q 79.640625 56 84.28125 50.015625 
Q 88.921875 44.046875 88.921875 33.015625 
L 88.921875 0 
L 79.890625 0 
L 79.890625 32.71875 
Q 79.890625 40.578125 77.09375 44.375 
Q 74.3125 48.1875 68.609375 48.1875 
Q 61.625 48.1875 57.5625 43.546875 
Q 53.515625 38.921875 53.515625 30.90625 
L 53.515625 0 
L 44.484375 0 
L 44.484375 32.71875 
Q 44.484375 40.625 41.703125 44.40625 
Q 38.921875 48.1875 33.109375 48.1875 
Q 26.21875 48.1875 22.15625 43.53125 
Q 18.109375 38.875 18.109375 30.90625 
L 18.109375 0 
L 9.078125 0 
L 9.078125 54.6875 
L 18.109375 54.6875 
L 18.109375 46.1875 
Q 21.1875 51.21875 25.484375 53.609375 
Q 29.78125 56 35.6875 56 
Q 41.65625 56 45.828125 52.96875 
Q 50 49.953125 52 44.1875 
" id="DejaVuSans-6d"/>
     <path d="M 56.203125 29.59375 
L 56.203125 25.203125 
L 14.890625 25.203125 
Q 15.484375 15.921875 20.484375 11.0625 
Q 25.484375 6.203125 34.421875 6.203125 
Q 39.59375 6.203125 44.453125 7.46875 
Q 49.3125 8.734375 54.109375 11.28125 
L 54.109375 2.78125 
Q 49.265625 0.734375 44.1875 -0.34375 
Q 39.109375 -1.421875 33.890625 -1.421875 
Q 20.796875 -1.421875 13.15625 6.1875 
Q 5.515625 13.8125 5.515625 26.8125 
Q 5.515625 40.234375 12.765625 48.109375 
Q 20.015625 56 32.328125 56 
Q 43.359375 56 49.78125 48.890625 
Q 56.203125 41.796875 56.203125 29.59375 
M 47.21875 32.234375 
Q 47.125 39.59375 43.09375 43.984375 
Q 39.0625 48.390625 32.421875 48.390625 
Q 24.90625 48.390625 20.390625 44.140625 
Q 15.875 39.890625 15.1875 32.171875 
z
M 28.640625 61.625 
L 16.671875 79.984375 
L 23.46875 79.984375 
L 32.25 68.015625 
L 41.046875 79.984375 
L 47.828125 79.984375 
L 35.859375 61.625 
z
" id="DejaVuSans-11b"/>
     <path d="M 2.984375 54.6875 
L 12.5 54.6875 
L 29.59375 8.796875 
L 46.6875 54.6875 
L 56.203125 54.6875 
L 35.6875 0 
L 23.484375 0 
z
" id="DejaVuSans-76"/>
     <path d="M 56.203125 29.59375 
L 56.203125 25.203125 
L 14.890625 25.203125 
Q 15.484375 15.921875 20.484375 11.0625 
Q 25.484375 6.203125 34.421875 6.203125 
Q 39.59375 6.203125 44.453125 7.46875 
Q 49.3125 8.734375 54.109375 11.28125 
L 54.109375 2.78125 
Q 49.265625 0.734375 44.1875 -0.34375 
Q 39.109375 -1.421875 33.890625 -1.421875 
Q 20.796875 -1.421875 13.15625 6.1875 
Q 5.515625 13.8125 5.515625 26.8125 
Q 5.515625 40.234375 12.765625 48.109375 
Q 20.015625 56 32.328125 56 
Q 43.359375 56 49.78125 48.890625 
Q 56.203125 41.796875 56.203125 29.59375 
M 47.21875 32.234375 
Q 47.125 39.59375 43.09375 43.984375 
Q 39.0625 48.390625 32.421875 48.390625 
Q 24.90625 48.390625 20.390625 44.140625 
Q 15.875 39.890625 15.1875 32.171875 
z
M 38.53125 79.984375 
L 48.25 79.984375 
L 32.34375 61.625 
L 24.859375 61.625 
z
" id="DejaVuSans-e9"/>
    </defs>
    <g style="fill:#323232;" transform="translate(541.119241 124.883062)scale(0.14 -0.14)">
     <use xlink:href="#DejaVuSans-6d"/>
     <use x="97.412109" xlink:href="#DejaVuSans-11b"/>
     <use x="158.935547" xlink:href="#DejaVuSans-6e"/>
     <use x="222.314453" xlink:href="#DejaVuSans-6f"/>
     <use x="283.496094" xlink:href="#DejaVuSans-76"/>
     <use x="342.675781" xlink:href="#DejaVuSans-e9"/>
    </g>
    <!-- politiky -->
    <defs>
     <path d="M 18.109375 8.203125 
L 18.109375 -20.796875 
L 9.078125 -20.796875 
L 9.078125 54.6875 
L 18.109375 54.6875 
L 18.109375 46.390625 
Q 20.953125 51.265625 25.265625 53.625 
Q 29.59375 56 35.59375 56 
Q 45.5625 56 51.78125 48.09375 
Q 58.015625 40.1875 58.015625 27.296875 
Q 58.015625 14.40625 51.78125 6.484375 
Q 45.5625 -1.421875 35.59375 -1.421875 
Q 29.59375 -1.421875 25.265625 0.953125 
Q 20.953125 3.328125 18.109375 8.203125 
M 48.6875 27.296875 
Q 48.6875 37.203125 44.609375 42.84375 
Q 40.53125 48.484375 33.40625 48.484375 
Q 26.265625 48.484375 22.1875 42.84375 
Q 18.109375 37.203125 18.109375 27.296875 
Q 18.109375 17.390625 22.1875 11.75 
Q 26.265625 6.109375 33.40625 6.109375 
Q 40.53125 6.109375 44.609375 11.75 
Q 48.6875 17.390625 48.6875 27.296875 
" id="DejaVuSans-70"/>
     <path d="M 9.078125 75.984375 
L 18.109375 75.984375 
L 18.109375 31.109375 
L 44.921875 54.6875 
L 56.390625 54.6875 
L 27.390625 29.109375 
L 57.625 0 
L 45.90625 0 
L 18.109375 26.703125 
L 18.109375 0 
L 9.078125 0 
z
" id="DejaVuSans-6b"/>
     <path d="M 32.171875 -5.078125 
Q 28.375 -14.84375 24.75 -17.8125 
Q 21.140625 -20.796875 15.09375 -20.796875 
L 7.90625 -20.796875 
L 7.90625 -13.28125 
L 13.1875 -13.28125 
Q 16.890625 -13.28125 18.9375 -11.515625 
Q 21 -9.765625 23.484375 -3.21875 
L 25.09375 0.875 
L 2.984375 54.6875 
L 12.5 54.6875 
L 29.59375 11.921875 
L 46.6875 54.6875 
L 56.203125 54.6875 
z
" id="DejaVuSans-79"/>
    </defs>
    <g style="fill:#323232;" transform="translate(543.91596 140.56)scale(0.14 -0.14)">
     <use xlink:href="#DejaVuSans-70"/>
     <use x="63.476562" xlink:href="#DejaVuSans-6f"/>
     <use x="124.658203" xlink:href="#DejaVuSans-6c"/>
     <use x="152.441406" xlink:href="#DejaVuSans-69"/>
     <use x="180.224609" xlink:href="#DejaVuSans-74"/>
     <use x="219.433594" xlink:href="#DejaVuSans-69"/>
     <use x="247.216797" xlink:href="#DejaVuSans-6b"/>
     <use x="305.080078" xlink:href="#DejaVuSans-79"/>
    </g>
   </g>
   <g id="line2d_28">
    <path clip-path="url(#p093ba86b71)" d="M 41.719375 235.589333 
L 81.093225 240.824 
L 119.611121 231.965333 
L 158.556994 217.469333 
L 197.930843 193.309333 
L 237.304693 131.701334 
L 275.822589 76.536 
L 314.768462 55.194666 
L 354.142311 44.968748 
L 393.516161 87.812011 
L 432.034057 144.279265 
L 470.97993 183.408002 
L 510.35378 216.281777 
L 549.727629 234.427952 
L 588.673502 241.688265 
L 627.619375 241.312277 
" style="fill:none;stroke:#ffffff;stroke-linecap:square;stroke-width:3.5;"/>
   </g>
   <g id="line2d_29">
    <path clip-path="url(#p093ba86b71)" d="M 41.719375 235.589333 
L 81.093225 240.824 
L 119.611121 231.965333 
L 158.556994 217.469333 
L 197.930843 193.309333 
L 237.304693 131.701334 
L 275.822589 76.536 
L 314.768462 55.194666 
L 354.142311 44.968748 
L 393.516161 87.812011 
L 432.034057 144.279265 
L 470.97993 183.408002 
L 510.35378 216.281777 
L 549.727629 234.427952 
L 588.673502 241.688265 
L 627.619375 241.312277 
" style="fill:none;stroke:#000000;stroke-linecap:square;stroke-width:2.5;"/>
   </g>
  </g>
 </g>
 <defs>
  <clipPath id="p093ba86b71">
   <rect height="271.8" width="585.9" x="41.719375" y="10.7"/>
  </clipPath>
 </defs>
</svg>
